<svg width="447" height="421" xmlns="http://www.w3.org/2000/svg">
 <style type="text/css">.st0{fill:#CCCCCC;stroke:#FFFFFF;stroke-width:0.5;}</style>

 <g>
  <title>background</title>
  <rect fill="none" id="canvas_background" height="402" width="582" y="-1" x="-1"/>
 </g>
 <g>
  <title>Layer 1</title>
  <g transform="rotate(-179.93167114257812 196.9499969482422,122) " id="svg_1">
   <path d="m142.3,-150.4l0,-0.4l0.6,-0.8l-1.5,-1l0.3,-0.8l0.4,-0.2l1.5,0l0.1,-0.4l-0.1,-1l-0.3,-0.6l0.3,-0.4l1,0l1.1,0.7l1.4,0.1l1,0.7l0.6,0.1l4.8,-0.3l1.4,0.5l1.8,-1.2l1.5,0l0.6,1.2l-0.4,0.8l0.6,-0.6l0.1,-0.3l-0.2,-1.3l0.2,-0.4l1.4,-0.5l1.1,0.4l0.7,-0.1l-0.4,0l-0.8,-0.6l-0.1,-0.5l0.1,-3.2l0.6,-1l-1.6,-1.2l-0.6,-0.8l-0.4,-0.3l-0.8,-0.1l-1.6,0.3l-1.3,0.7l-0.2,0l-1.1,-1.1l-0.2,-0.7l-1.1,-0.6l-1,0.1l-0.1,-0.1l1.2,-1.4l1.2,-0.6l1.1,1.1l0.8,1.9l0.4,0l0.3,-0.6l-0.5,-1.5l-0.5,-0.9l0.4,-0.1l1,0.4l0.7,-0.4l1.8,1.5l0.1,0.5l1.7,2.2l0.6,0.1l0.5,-0.4l1.1,-1.7l0.5,0l0.9,0.9l1.6,3l0.4,0.3l0.7,0.2l0.6,-0.4l0.5,0l0.6,0.8l1.5,0.6l0.7,0l0.5,-0.2l1.1,-0.6l0.4,-0.5l1.2,0.2l0.1,0.3l-0.8,0.4l-0.2,0.3l0.1,0.3l0.3,0.3l0.8,0.3l0.6,-0.3l0.3,-0.4l0.2,0l1.5,1.1l-0.1,0.2l0.4,1.4l0.2,0.2l1.8,-0.3l0.6,0.2l1,0.1l0.9,-0.1l0.8,-0.6l1.1,-0.1l1.1,1.5l1.4,0.7l0.9,0.8l1.2,0.1l0.4,0.2l-0.1,-0.2l0.4,-1.1l0.7,-0.7l0.6,-0.2l0.6,0.3l1.6,-0.2l0.8,-0.7l-0.2,-0.1l-0.6,0.4l-0.1,-0.3l0.2,-0.8l1,-0.3l0.7,0l1.4,-1.1l0,-0.8l0.4,0l0.4,0.4l-0.3,0.5l-1.9,1.6l0.5,0.5l-1.2,1.3l-0.1,0.4l0.2,0.5l0.5,0.5l0.6,-0.2l0.2,-0.5l0.9,-0.7l1.5,-0.4l-0.9,1.2l0.4,0.6l0.8,-0.4l0.2,0.3l-0.9,1.3l0.3,0.7l0.3,0.3l0.4,-0.3l0.8,-0.1l0.1,0.3l0.8,-0.1l0.6,-0.5l0.8,-1.9l-0.3,-0.4l-1,0.1l-0.7,-0.3l-0.1,-0.3l1.1,-1.1l1.8,-1.2l1.2,-0.2l-0.2,0.8l0.7,1.9l0.8,1.1l0.5,0l0.4,-0.3l0,-0.2l-0.7,-0.3l0.1,-0.2l0.9,-0.2l1.1,0.6l1.1,1.5l-1.9,1.3l-0.6,0.7l-1.1,1.8l-0.2,1.3l-1.4,-0.5l-0.1,0.7l0.7,1.2l0,1.1l-0.2,1l-0.8,1.1l-0.1,-0.3l-0.9,0.3l0,-2l-0.2,-0.2l-0.3,0.1l-0.4,1.2l-0.9,0.8l-0.4,0l-0.1,-0.4l-0.5,-0.2l-1.1,0.4l-0.7,0.6l-0.4,0.7l0,0.3l0.1,0.5l-0.3,0.7l-0.5,0.4l-0.2,1.2l0.5,1.4l0.4,0.2l0.6,-0.2l0.5,-0.5l-0.1,0.8l-0.3,1.2l-0.7,1.1l-0.3,2l-0.3,0.6l-1.3,0.8l-1.4,1.8l-0.9,1.5l0,0.8l-1.4,0.9l-0.4,0l0.7,1.9l0.5,0.7l0.7,0.6l1.4,0.5l2,1.3l1,0.9l2.9,1.5l0.3,0.3l0.3,1.4l0.6,0.7l2.7,1.3l1.1,0.9l1,1.1l2.9,0.1l1.1,0.6l2.5,1.8l1.3,0.6l0.6,0l1.1,0.4l1,0.5l1.3,2.1l1.5,1.3l0,0l0,109.6l0,0l-73.5,0l0,0l-14.5,0l0,0l-9.7,0.1l0,0l-0.1,-101.6l0,0l0,-21l0,0l0,-5.9l0,0l1,0.3l1,0.9l-0.1,2l0.2,0.2l0.7,-0.9l-0.4,-2.7l0.1,-0.2l1.1,0.3l1.4,0.7l2.2,2.5l0.2,0.5l0.6,-0.2l-0.7,-1l-0.4,-0.8l-0.1,-0.8l0.2,-0.5l0.1,-0.8l1.7,0.3l0.7,-0.2l0.9,-0.8l-1.9,0.6l-1,-0.6l-0.8,-1l-0.2,-0.5l0.4,-0.2l0.9,-0.1l0.7,-0.5l0,-0.2l-1.2,0.4l-1.3,-0.2l-0.9,-0.5l-1.1,-1l0.1,-0.9l0.6,-1.2l0.7,-0.9l2.6,-1.6l0.6,-2.8l-0.1,-0.5l0.5,-2l0.8,-0.8l0.1,0.7l0.4,0.2l1.1,-0.2l1.3,-0.9l1.1,-1.2l-0.1,-0.4l-0.7,-0.9l-0.4,-0.3l-0.4,-0.1l-0.1,-0.2l0.1,-2l0.2,-0.5l0.4,-0.2l0.1,0.3l0.5,0l0.4,-0.1l0.7,-0.5l0.3,-0.6l-0.1,-1.5l0.1,-0.4l1.7,-0.8l1,1.1l1,-0.1l-0.9,-0.3l-0.3,-1.2l0.3,-0.7l0.1,-0.9l-0.3,-0.2l0.5,-0.2l1.5,0.5l1.3,2.5zm0.7,-7.8l-1.1,-0.9l-2,-0.8l-2,-1.6l-0.8,-2.1l-0.6,-2.2l0.1,-0.8l0.2,-0.2l1.5,1.3l0.4,0.7l1.4,0.4l1.5,-0.4l0.6,-0.6l1.1,0.5l1.3,-1l0.3,0l0.2,0.8l0.6,0.8l0.1,-0.3l-0.4,-0.9l0.1,-0.6l0.7,-0.6l1.6,0.6l1.2,1.6l0.1,0.8l-2.8,2.9l-0.4,0l-1.3,0.9l-1.6,1.7zm64.6,24.8l0.2,-0.3l0.5,0l-0.3,1.4l-0.6,0.2l-1.5,-0.4l-1.3,0.2l-2.8,-0.7l0.4,-1.9l-0.1,-0.8l0.2,-0.9l0.3,-0.5l1.5,-0.3l0.4,-0.3l-0.3,-0.7l0.9,-0.8l0.5,0l-0.1,0.5l-0.4,0.3l0.4,1.2l1,0.2l0.4,-0.4l-0.1,-0.4l0.2,-0.3l0.4,-0.1l0.3,0.2l0.1,0.4l-1.1,1.1l-0.7,0.5l-0.7,1.5l0,1l0.3,0.3l1.5,0.2l0.5,-0.4zm-69.7,-25.9l-1.8,-0.7l-2.5,0.6l-0.6,-0.1l-0.2,-0.3l-0.1,-0.3l0.6,-1.1l0.5,0.3l0.4,0l0.4,-0.4l0,-1.5l-0.2,-0.5l0.9,-1.6l1,-0.2l1.6,4l0.8,0.2l0.8,0.7l-0.2,0.5l-1.4,0.4zm65.3,-4.2l0,-0.5l1.5,-2.1l0.9,-1.9l0.5,-0.3l-0.5,2l-1.8,2.5l-0.2,0.2l-0.4,0.1zm-42.5,-1.2l-0.3,-0.3l-0.4,-1.1l-0.3,-1.8l0.8,-0.3l0.5,1.7l0,1.1l-0.3,0.7zm48.4,49.8l-0.6,-0.5l-0.7,-1l0.2,-0.6l0.6,-0.6l0.5,0.6l0.4,1.3l-0.3,0.7l-0.1,0.1zm-9.2,-22l0,-0.4l-0.4,-0.6l-0.3,0.2l0.2,0.5l-0.4,0l-0.2,-0.2l0.1,-0.9l0.9,-0.8l0.5,0.1l0.5,0.7l-0.1,0.7l-0.4,0.6l-0.4,0.1zm-0.2,-24l0,-0.5l1,-0.8l0.8,0l1.4,-1.1l-0.1,0.6l-1.1,0.8l-2,1zm3.7,43.9l-0.3,-0.1l0.2,-0.9l0.6,-0.4l0.3,0.1l-0.2,1.2l-0.6,0.1z" class="st0" id="AU-NT"/>
   <path d="m-38.5,2.8l0.2,-0.4l0,-1.5l-2.4,-2.6l-1.3,-2.4l-1.2,-3l-1.1,-0.7l-1,-2.8l-0.1,-0.5l0.1,-1.1l-0.7,-1l-1.4,-1.6l-0.4,-1.2l-0.1,-2.4l0.4,-1.1l0.2,-1.5l0.9,-3l0.8,-1.5l1.5,-1.2l0.3,-1l0.1,-1.3l-0.2,-1.6l0.6,-1.9l-0.1,-1.1l-0.6,-1.6l-0.9,-1.3l-0.2,-0.9l1.6,-3.2l1.4,-4.2l1.1,-1.6l0.6,-0.4l0.8,-0.1l0.1,0.3l-0.5,1l-0.5,3.1l0.7,1.5l-0.3,2.2l0.5,0.5l2.4,-1l0.3,-1.2l0.7,-1.7l1.8,-3.1l0.3,-1l3.2,-1.8l1.2,-0.1l2.1,-1l2.2,-0.9l1.8,-2.2l0.7,-0.5l1.4,-0.6l1.3,-1.9l2.5,-1.2l0.3,-0.7l0.7,-0.4l0.7,-0.1l1.8,-0.6l1.4,-0.9l1.1,-0.9l0.9,0.2l0.5,0.5l0.5,0.1l2.1,-1.1l1.1,0.4l0.3,0.4l0.8,0.3l0.8,0.2l0.7,0l3,-0.6l1.8,-0.8l2.4,-2.3l1.2,-0.7l0.2,0.3l0.5,0l3.4,-0.6l1.2,0.1l1.6,-0.5l1.6,-1.9l0.3,-0.9l0.8,-1l1.2,-0.1l2.7,0.7l1.6,0.6l2.2,-1.1l4.9,-0.7l1.1,-0.3l5.9,-2.4l1.6,-0.8l2.7,-2.3l2.3,-3.1l1.6,-3.5l1.5,-2l-0.1,-0.9l0.4,-0.9l0.3,-0.2l0.7,0.2l0.5,-0.3l0.8,-0.6l0.6,-0.8l0.7,-0.3l2.3,-1.8l0.3,-0.8l-0.1,-0.6l-0.3,-0.3l-0.9,-0.2l-0.5,-0.7l-0.1,-2.1l-0.6,-1.7l0,-2.2l0.3,-1.3l0.9,-1.5l1.3,-1.3l0.7,-0.5l1.4,0l-0.6,-1.2l0.5,-0.6l0.3,-0.1l0.2,0.2l0.3,0l1.2,-0.4l0.1,-0.3l-0.3,-0.4l0.3,-1.1l0.3,-0.3l0.6,-0.1l0.6,-0.6l0.1,-0.6l0.2,-0.4l0.8,-0.3l0.7,0.7l-0.2,0.3l-0.5,-0.1l-0.4,1.2l0.7,0.9l0.8,0.5l0.2,0.9l2.1,3.9l2.7,4.3l0.2,0.9l0.2,-1l-0.4,-0.7l0,-0.9l0.6,-1.8l-0.5,-1.5l0.2,-0.9l0.7,0l1.4,1.7l0.8,0.7l0.4,0.2l0.3,-0.2l-0.4,-0.2l-0.5,-0.6l-0.4,-1.6l1,-1.2l-0.4,-0.2l-0.8,0.2l-0.2,-0.1l-0.5,-1.1l-1.2,-1.3l0.1,-1.2l-1.2,0l-0.8,-0.8l0.7,0l1.6,0.4l0.7,-1.1l0.1,-0.6l-0.1,-0.4l-1.2,-0.2l-0.4,-0.3l0,-1l0.2,-0.3l1.7,-0.4l0.9,0.7l-0.2,0.5l-0.6,0.2l1.2,1.2l0.6,0.1l0,-0.4l0.8,-1.1l1.3,0.2l0.6,0.3l0.3,0.2l0.4,0.9l0.3,0.2l1.1,0.1l0.6,-0.6l1,0.5l1.1,0.1l1.6,-0.2l1.2,0.5l0.6,-0.3l-0.8,-0.1l-1.3,-0.6l-0.9,-0.2l-0.6,0l-0.9,0.3l-0.8,0l-0.2,-0.2l-0.3,-1.2l0.6,-1.3l0.4,-0.1l0.5,0.8l0.8,-0.6l-0.1,-1l0.3,-1.2l1.2,-1.2l-0.6,-0.2l-0.6,0.2l-0.9,1.5l-0.5,0l-0.9,-0.8l-0.3,-2.2l0.9,-2.1l0.3,-0.2l1,0.6l0.8,-0.4l0.2,-0.3l-0.1,-2.2l0.5,-0.1l2.2,1.2l0.9,0.8l2,1l-1.1,-1l-0.1,-0.2l0.5,-1l-0.2,-0.2l-0.9,0l-1.1,0.4l-0.1,-0.6l0.4,-0.6l0.4,-0.2l0.3,0.2l0.4,-0.7l-0.3,-0.1l-1.4,0.9l-0.3,0l-0.3,-0.8l0.4,-0.5l0.5,-0.2l0.6,0.2l0.2,-0.1l0.6,-0.4l-0.2,-0.4l0.6,-0.5l0.8,1.7l0.2,0.1l0.1,-0.5l-0.1,-1l1.3,0.8l0,0.4l0.4,0.2l1,0l0.2,-0.2l-0.2,-0.2l-0.3,0l-0.3,-0.3l0.3,-0.3l-1.2,-0.8l-1.1,-0.5l0.4,-0.4l0.3,-0.1l-1.2,-1.7l1.2,-1.7l1,-0.8l0.6,0.2l2.2,0l0.1,-1.4l-0.2,-1.3l0.1,-0.8l0.3,-0.2l1.2,0.6l-0.9,4l0.2,-0.2l0.7,-2.3l1.3,0.7l-0.2,1.2l0.2,0.4l0.6,0.4l1,-1.1l0.5,-0.4l0.3,-1.9l0.8,-1.7l0,-0.7l-0.7,-1.8l-0.7,-0.4l0.5,-0.1l0.9,0.1l0.8,0.4l-0.1,0.8l-0.6,0.2l0.4,1.2l0.5,0.1l0.6,0.6l0.3,-0.4l-0.2,-0.6l0.4,-1l1.1,-0.8l0.8,-0.1l-0.5,1.2l1.2,1.6l0.4,0.1l1.1,-1.2l0.9,-1.7l-0.5,-2l1.2,-0.5l1.1,-0.2l0.7,0.5l0.6,0.8l-0.2,0.4l0.8,1l0.3,-0.4l0,-0.4l0.9,0l2,0.6l1,1.5l1.5,1l3.2,4.5l0.5,-0.2l1.8,1.6l0.2,1.1l-0.5,0.8l-0.8,2.6l0.1,1.2l-0.1,2.1l-0.6,1.1l0.5,-0.3l0.3,-0.4l0.4,-2.5l0.5,0.2l0.8,0.8l0.3,1.1l0.1,-1.1l-0.7,-1.3l-0.4,-1.4l1.2,-1.7l0.2,0l0.3,1.4l1,0l0.1,-0.5l-0.4,-0.8l-0.3,-1.5l1.6,-0.5l5,1.3l0,0l0,5.9l0,0l0,21l0,0l0.1,101.6l0,0l-0.1,70.2l0,0l-2.2,1l-2.6,1.5l-4,1.8l-1.9,0.7l-3,0.6l-4.4,1.7l-2.3,0.4l-4.8,0.2l-3.1,-0.3l-2.4,-0.7l-1.2,0.6l-1.1,-0.2l-1.8,1l-3.2,2.6l-0.8,0.3l-1.5,0.3l-3.3,1.8l-1.3,1.1l-1.4,0.9l-3.7,0.6l-1.3,0.5l-1,0.8l-0.9,1.2l-1.1,3.3l-0.5,2.1l-1,0.7l-1,1l-0.4,0.7l0,0.4l-0.5,0.5l-1.6,1.1l-1.9,-0.1l-0.3,0.1l-0.7,0.9l-0.5,0.4l-0.7,0.2l-0.7,-1.7l-0.9,-0.4l-1.9,0.6l-1.2,-0.2l-1.5,0.1l-0.2,0.2l-1.6,0.2l-0.9,-0.2l-0.6,0.2l-0.4,0.5l-0.1,0.7l-1,-0.3l-0.4,-0.1l0.2,-0.5l-0.3,-1.1l-0.6,-0.8l-0.2,-0.1l-0.8,0.1l-0.6,0.6l-0.9,0.2l-2.8,-1l-0.7,0l-1.4,0l-3.1,0.5l-2.1,0l-0.8,0.4l-2.7,0.4l-1.3,0.7l-1.8,-0.5l-2.7,-0.1l-2.1,0.6l-0.8,0.9l-1.3,0.7l-0.6,0.6l-0.9,1.6l-0.2,0.8l-1.5,1.5l-1.3,0.8l-1.4,-0.5l-1.8,-0.2l-1.9,1.3l-0.2,0.3l0.4,0.4l-0.4,0.4l-0.9,0.5l-1.8,0.6l-0.6,0.7l-0.3,0.9l-1.2,0.9l-2.2,1.2l-2.7,0.5l0,0.3l0.3,0.3l1.5,0.3l-0.7,0.4l-0.8,-0.1l-0.8,-0.6l-0.6,-0.2l-0.7,0l-0.3,0.2l-0.2,0.9l-0.8,-0.7l-2.2,-1l-4.1,0l-0.6,0.5l-0.2,0l-1.6,-0.5l-1.3,0.2l-1.5,-0.4l-2.6,-1.8l-2.6,-0.6l-0.7,-1.5l-1.1,-1.2l-1.8,-1.8l-1.6,-1.1l-2,-1l-0.8,-0.1l-0.8,0.2l-0.5,0.6l-1.2,-1.3l0,-1.1l-0.6,-4l0,-2.3l0.5,-2.2l0.5,0.1l0.7,1l1.3,0.5l1,-0.1l0.9,-0.3l0.4,-0.2l3.1,-4.4l-0.5,-3.6l-0.8,-4l0.2,-0.9l0.8,-1l0,0.4l-0.6,0.7l0,0.5l0.4,1.2l0.3,0.5l0.2,-0.1l0,-0.7l0.5,-1.8l-0.3,-3.2l0.2,-1.6l-0.2,-1.2l0.1,-2.6l-0.4,-2.2l-0.3,-0.7l-2.6,-4.8l-0.8,-2.2l-0.6,-1.5l-1.5,-2.7l-1.3,-3.4l0.1,-0.3l-0.3,-2.5l-0.7,-2.5l-0.2,-0.2l0,-4.9l0.4,-2.3l-0.5,-1.9l-0.3,-0.4l-0.2,-1.2l-0.6,-1.4l-2.3,-2.8l-0.3,-0.9l-0.1,-2l-0.9,-1.8l-2.1,-3.2l-0.8,-0.5l-0.8,-1.2l-0.6,-2.9l0.1,-0.9l0.4,-0.9l-0.2,-1.3l-0.5,-1.9l-1.5,-3.1l-1.5,-2.8l-2.3,-3.4l-3.9,-3.5l-0.6,-1.9l0.5,-1l-0.1,-1.1l0,-0.3l0.2,-0.1l0.2,2.3l0.3,0.7l0.3,-1.9l1.6,2l0.2,0.6l0.1,2.1l0.2,0.7l0.8,1l0.3,0.1l0,-0.3l0.7,-0.5l0.5,0.1l0.8,-1.2l0.1,-2.1l-0.8,-1l-1.5,-1l-0.8,-1.1l-0.6,-2.6l-1.1,-1.8l0.2,-1l0.7,-1.1l0.3,0.2l1,1.8l1.1,1l0.4,1.1l-0.3,1.4l-0.3,0.3l0,1l0.3,0.9l0.6,0.1l0.4,-0.4l0.9,-1.7l0.6,2.8l0.3,0.8l1.2,1.6l1.4,-1.1l0.3,-1l-0.3,-0.5l-0.2,-0.9l0.4,-2.3l0.2,0.5zm-11.3,1.7l-0.3,-0.3l-1.6,-2.4l-0.8,-1.6l-0.5,-1.9l0.1,-1.1l0.4,-0.6l0.5,0.1l-0.2,0.5l0,0.3l1.3,3.7l1.1,2l0.2,0.8l-0.2,0.5zm122.9,-123.7l-0.1,-0.3l-0.6,-0.5l0.1,-0.5l0.3,-0.4l0.7,-0.3l0.9,1.6l-1.3,0.4zm-99.4,61.7l-0.4,-0.3l-0.3,0.3l-0.1,-0.1l0,-0.6l1.1,-1.5l0.4,-0.2l0.1,0.1l0.1,0.8l0,0.3l-0.6,1l-0.3,0.2zm106.1,-70.7l-0.6,-0.3l0.1,-0.8l0.2,-0.6l0.5,-0.5l0.5,0.6l-0.2,1.2l-0.4,0.2l-0.1,0.2z" class="st0" id="AU-WA"/>
   <path d="m339.3,128l-1.3,-0.6l-1.4,-2.1l-0.3,-0.8l0,-1.8l0.5,-2.6l2.9,-2.1l1.3,0.7l0.6,0.7l1,0.4l0.7,0.4l-0.5,0.4l-1,-0.1l-0.8,0.4l-0.5,0.7l-0.6,2.5l0.2,2.8l-0.1,0.4l-0.7,0.7z" class="st0" id="AU-ACT"/>
   <path d="m349.4,149.5l-19.2,-9.7l-1,-0.1l0.9,-1.5l0.1,-1l-1,-2l-0.7,-0.9l-0.6,-4.4l-1.2,-0.8l-1.8,-0.8l-0.9,0.4l-1.5,-0.3l-1,0.2l-1,1.3l-1,0.1l-1.8,0.6l-1.5,-0.1l-2.4,-0.8l-1,-0.8l-1.1,-0.2l-0.7,0.1l-0.4,0.4l-1.1,0.5l-2.2,-0.2l-3.1,-0.6l-0.8,-0.3l-1.3,-1.2l-0.8,-0.6l-0.3,0l-0.8,0.2l-1,0.5l-1,-0.1l-0.4,-0.3l-1.3,0l-1.4,0.4l-0.2,0.2l-0.4,1.4l0.2,1.4l-1.9,0.5l-0.4,-0.1l-1.3,-0.8l-2.3,-2.7l-0.6,-1.3l-0.2,-0.3l-0.6,-0.2l-1.1,-1l-0.8,-1.2l-1.9,-1l-1.7,-1.3l-0.8,-0.3l-0.5,0.1l-0.7,-0.5l-0.2,-0.3l0.2,-0.8l-0.4,-0.6l-0.9,-0.2l-0.8,-0.5l-0.5,-1.1l-0.3,-1.6l0.3,-1.3l0,-0.8l-0.1,-0.2l-2.3,-1.3l-1.6,-0.1l-1.3,-0.5l-0.1,-0.4l-0.7,-0.5l-0.6,0.2l-0.2,0.3l-0.4,1.5l-0.5,0.6l-0.9,-0.2l-0.4,-0.4l0,-0.3l-0.6,-1.5l-0.9,-0.9l0,-1.9l-1.5,-2.5l-0.9,-0.6l-1.2,-0.6l-1.7,0.4l-1.6,-0.4l-1,0.4l-0.6,0.8l-0.5,0.3l-0.2,-0.3l-1.2,-0.7l-1.8,-0.8l-1.9,-0.1l-0.3,-0.1l-0.5,-0.5l0,0l0,-63.7l0,0l1.3,0l0,0l21.8,0l0,0l17.1,0l0,0l13.8,0l0,0l32.5,0l0.8,-0.4l1.3,-1.6l3.5,-2.9l1.2,-0.3l0.3,0.1l0.2,0.4l1,0.3l3.3,-0.3l1.6,-0.6l1.5,-0.2l0.3,0.1l0.8,0.9l0.8,0.5l1.8,0.1l1.6,-0.3l2.7,1.2l2.8,2.4l0.1,1.9l0.4,1l0.2,0.1l0.5,-0.1l0.5,-0.6l1,-2l1.9,-0.8l0.4,0.8l0.7,0.3l2.1,-1l0.4,-2l-1,-2.2l1,-0.8l1.2,-0.6l2.2,-0.7l0.4,-0.3l0.2,-0.6l0.6,-0.5l0.5,0.1l0.7,0.7l1.8,0.4l2,-0.2l1.8,0.1l0.8,-1.1l1.5,-0.3l1.2,-0.5l0.8,-0.7l0,0l0.8,0.7l0.1,0.8l-0.4,2.7l0.2,1.4l0.5,0.7l-0.2,2.5l-1.7,2.2l-1.2,3.5l0.3,0.9l-1.2,6.9l-0.5,2l-2,5.7l-0.1,3.4l0.2,0.6l0.4,0.1l0.2,0.8l-1.1,3.7l-0.2,1.5l-1.1,3.8l-1,2l-2.2,2.8l-0.5,1.3l0.3,1.7l-0.1,1.8l-1.9,1.6l-0.8,0.9l-1.7,1l-0.1,0.5l0.3,0.6l-2.1,0.7l-1.5,0.8l-1.5,2.3l-1,2.5l-0.2,0.2l-0.5,0l-0.5,0.4l-0.1,0.6l0.5,0.4l-0.4,1.4l-1.2,1.7l-0.5,3.5l-0.3,0.9l-0.4,0.3l-0.6,-0.1l-0.9,0.3l0.6,0.2l0.4,0.4l-0.9,1.4l-1,0.7l-1,1.4l-1,3l0.4,0.5l-0.5,2.5l-0.7,0.4l-0.2,0.8l0.4,1.1l0.8,0.8l-0.2,0.9l-0.3,0.2l-0.4,-0.4l0.1,-0.3l-0.3,-0.6l-0.3,0l-0.7,0.4l-0.1,0.4l0.3,0.7l-0.6,0.7l-1.2,0.6l-0.6,1.1l-0.1,0.6l-0.8,2.3l-0.5,0.9l-2.1,4.6l-0.3,2.3l0,2.9l-0.6,0.8l-0.6,3.2l-0.6,2.2l-0.7,1.7l0,2l1.1,1.2l0.1,0.9l0,0.5l-0.3,-0.1l-0.5,0.3l0,1.6l0.5,1.7zm-9.5,-22.3l0.1,-0.4l-0.2,-2.8l0.6,-2.5l0.5,-0.7l0.8,-0.4l1,0.1l0.5,-0.4l-0.7,-0.4l-1,-0.4l-0.6,-0.7l-1.3,-0.7l-2.9,2.1l-0.5,2.6l0,1.9l0.3,0.8l1.5,2.1l0.3,0.2l1.1,0.4l0.5,-0.8z" class="st0" id="AU-NSW"/>
   <path d="m201,105.3l-1.1,1.7l-0.9,0.4l-0.9,1.6l-1.1,0.7l-0.7,1.3l-0.8,2.3l0.3,0.1l0.5,-0.1l1.4,-1l0.1,0.7l-0.2,2.6l-0.5,0.2l-0.3,-0.5l-0.9,-1l-0.6,-0.4l-0.7,0.1l-0.5,1.1l-0.4,0l-0.4,-0.8l-1.4,-1.9l-1.6,-1.7l-0.9,-0.7l-0.4,-0.1l-1.1,0.4l0.4,-1.2l0.6,-0.9l0.1,0.8l1.4,1.5l0.6,0.4l1.1,-0.4l-1.1,-0.4l-0.1,-0.4l-0.1,-0.3l0.2,-0.4l-0.5,-2.7l-0.8,-2.2l-0.1,-1.5l-0.7,-1.1l-1.7,-2l-2.1,-1.7l0.3,-1.2l-0.1,-0.9l-0.5,-1.5l-1.1,-2.3l-1.2,-0.5l-2,0.3l-0.9,0.5l-0.7,-0.7l0,-0.3l-0.8,-2.1l-1.3,-3l0.9,0.1l0.4,0.4l0.1,0.6l0.7,-1l0.2,-0.7l-0.2,-1.1l-0.8,-1.1l-0.7,-0.6l-0.3,0l-1.7,0.5l-0.7,0.7l-0.4,-0.1l0,-1l0.3,-0.7l0.6,0.2l0.2,-0.3l-1.4,-1.9l-1.1,-0.6l-0.7,-0.6l0.1,-0.5l-0.7,-0.2l-0.3,0.2l-0.2,0.6l-0.9,0.6l-3.5,-0.2l-0.3,-0.1l-0.8,-0.8l-1,-0.4l-1.5,-1.4l-0.5,-0.3l-2.2,-0.3l-1,0.2l-0.8,0.8l-0.9,0.3l-0.7,0.1l-0.8,-0.2l-1.8,-1.9l-2.8,-2l-4.4,-2.3l-2.4,-0.9l-0.4,0l-1.1,0.9l-1.8,0.7l-0.6,0.1l-5.8,-0.4l-1.2,0l-2.3,0.2l-1.1,0.3l-6.6,0.6l-2.5,0.4l0,0l0.1,-70.2l0,0l9.7,-0.1l0,0l14.5,0l0,0l73.5,0l0,0l32.8,0l0,36.6l0,0l0,63.7l0,0l-0.3,-0.4l0,54.4l0,0l-1.3,-0.1l-0.9,0.3l-0.8,0l-1.8,-1l-1.9,-1.9l-1.3,-2.6l-1.3,-1.9l-0.8,-0.5l-0.6,0l-2,-2.6l-0.7,-1.4l0.3,-0.7l0,-0.5l-0.5,-1.3l0.2,-1.2l0.8,-0.6l0.4,-1.1l0,-1.8l-0.4,-1.4l-1.9,-4.6l-3,-4l-2,-2.1l-1.2,-0.9l0.5,0.2l3,2.6l2,2.7l0.8,1.7l-0.1,-0.9l-0.5,-1.4l-0.4,-0.6l-1.3,-1.5l-3.8,-3.6l0,-1.2l0.7,-0.3l0.8,0.7l-0.1,1.7l0.2,0.2l1,-0.1l0.3,-1.2l0.1,-1.8l-0.2,-1.3l-1.6,-0.8l-0.8,0.8l-0.6,0.2l-0.6,0l-0.5,0.2l-0.2,0.5l0.1,0.4l0.6,0.2l0.2,0.3l-0.5,0.6l-2.9,-0.2l-0.8,0.3l-0.6,0.8l-0.6,0.4l-3.9,0.2l-0.9,-0.7l0.6,-1.1l1.4,-0.7l1.7,-1.8l0.3,-1.8l-0.1,-0.5l0.1,-0.8l0.5,-1.2l-0.4,-2.1l0.2,-1.2l-0.1,-0.6l-0.7,-1.1l-1.7,-2.1l-0.6,-2.2l-1.4,-2.4l-0.3,0.1l-0.7,1.5l0.3,0.6l-0.2,0.5l-1,1.1l-0.4,1.3l-0.1,2.4l-1.4,4.5l0,1.1l-0.8,0.6l-1.5,-0.7l-0.8,-0.2l-0.4,0.1l-2,0.8l-0.5,0.8l-0.3,0.2l-1.5,-0.2l-0.8,0.7l-0.6,0.2l-0.4,-0.2l-0.3,-0.5l0.4,-0.6l0.7,-0.7l0.3,-0.6l0.2,-1.9l0.5,-0.8l0.9,0.4l0.9,-0.2l1,-0.1l0.2,0.3l0.9,0.4l0.5,-0.3l0.2,-0.5l0.5,-3.1l-0.2,-2.5l0.1,-2.4l-0.5,-1.6l0.2,-0.2l0.5,0l0.3,-0.6l0.5,-1.8l0.1,-0.9l1.9,-2.4l1.2,-1.2l0.5,-0.1l0.2,-0.5l-0.4,-1.5l-1.1,-2.1l0.3,-1l0.6,-0.4l0.6,-0.2l0.7,0l0.3,-0.2l-0.1,-0.7l-0.3,-0.6l-0.6,-0.2l-0.6,-2.9l-0.6,-1.3l-0.3,-1.5l-0.6,-0.4l-0.1,2.1l0.2,0.1l0.2,0.4l0.1,1.4l-0.4,1.9l-0.6,0l-1.4,0.4l-1.2,1.3l-1.1,2.2l-0.1,1.1l-0.2,0.6l-1.6,3.1l-0.7,0.6l-1.3,0l-0.8,-0.5l-0.7,1.1l0.2,0.1l-0.4,0.4l-3.1,1.6l-1.8,1.4l-0.6,0.6l-0.1,0.4l0.1,0.6zm17.4,20.2l1.6,0.5l0.5,0.7l0,0.7l-0.8,0.7l-1.3,-0.6l-1.7,-0.1l-1.5,0.7l-0.2,0.3l0.1,0.9l-0.3,0.3l-1.4,0.7l-1.1,-1.1l-1.4,-0.3l-0.4,0.1l-0.1,0.5l-0.3,0.2l-1.3,-0.1l-1.4,0.2l-2,0.1l-0.4,-0.6l-1.5,-1.3l0,-0.5l0.5,-1.5l4,-1.2l0.9,0l1,-0.2l2.1,-1l2.3,0.2l0.6,0.6l0,1.1l0.1,0.2l1,0.1l1.1,0.6l0.6,0l0.7,-0.9z" class="st0" id="AU-SA"/>
   <path d="m345.1,152.5l-1.3,0.6l-1.6,0.2l-5.2,0l-1.8,0.3l-1.8,-0.1l-2,0.1l-3.8,1.1l-2.2,1.1l-2.4,1.8l-1.8,1.7l-1.7,1.7l-2.6,3.1l-1,0.9l-2.4,0.3l-2.4,0.6l-0.9,-0.3l-1,0.1l-0.5,0.2l-0.4,0.6l1.2,2.2l1.2,-0.9l0.2,-0.8l0.4,0.2l0.2,3.8l-0.6,0.8l-0.3,0.2l-0.5,-0.2l-0.3,-0.5l-0.8,-2.1l-1.1,-1.4l-0.8,-0.4l-0.5,0.2l-0.1,0.4l-1.1,-0.1l-0.9,-1.8l0.3,-0.4l-0.3,-0.6l-1,-0.1l-0.8,0.5l-0.5,0.1l-0.5,-0.3l-1.6,-1.6l0.2,-1.3l1,-0.4l0.4,-0.7l-0.8,-1.7l-0.5,-0.3l-2,0.1l-0.5,1.5l-2,2l-1,0.2l-0.4,-0.1l-1.5,-1.8l1.3,0l1.1,-0.5l1.6,-2.8l-0.4,-1.3l-1.3,-2.1l-0.6,-0.3l-1,0.5l-1.5,1.4l-1.8,1.3l-1.5,0.2l-0.2,0.2l0.1,0.5l1.5,0.3l0.8,-0.3l0.5,-0.4l0.8,0.2l0.2,0.4l-0.1,0.6l-0.6,0.9l-0.3,0.2l-0.9,-0.2l-1.7,0.4l-0.4,0.2l-3.3,2.2l-2.4,2.9l-1.2,0.3l-0.4,0.3l-0.2,0.6l-1.4,1l-0.4,-0.1l-0.7,-0.8l-0.6,-0.4l-2.2,-0.7l-0.5,-0.5l-0.9,-0.6l-0.8,-0.1l-1.8,-0.7l-2.9,-2.2l-1.7,-0.7l-1.2,0.3l-0.2,0.2l-1,0l-1.1,-0.6l-1.1,-0.9l-1.6,-0.3l-0.8,0l-0.8,0.2l-0.6,0.5l0,0.4l0.3,0.6l-0.9,0.2l-1.3,-0.6l-0.9,-1.1l-1.9,-1.8l-1,-0.6l-1.5,-0.7l0,0l0,-54.4l0.3,0.4l0,0l0.5,0.5l0.3,0.1l1.9,0.1l1.8,0.8l1.2,0.7l0.2,0.3l0.5,-0.3l0.6,-0.8l1,-0.4l1.6,0.4l1.7,-0.4l1.2,0.6l0.9,0.6l1.5,2.5l0,1.9l0.9,0.9l0.6,1.5l0,0.3l0.4,0.4l0.9,0.2l0.5,-0.6l0.4,-1.5l0.2,-0.3l0.6,-0.2l0.7,0.5l0.1,0.4l1.3,0.5l1.6,0.1l2.3,1.3l0.1,0.2l0,0.8l-0.3,1.3l0.3,1.6l0.5,1.1l0.8,0.5l0.9,0.2l0.4,0.6l-0.2,0.8l0.2,0.3l0.7,0.5l0.5,-0.1l0.8,0.3l1.7,1.3l1.9,1l0.8,1.2l1.1,1l0.6,0.2l0.2,0.3l0.6,1.3l2.3,2.7l1.3,0.8l0.4,0.1l1.9,-0.5l-0.2,-1.4l0.4,-1.4l0.2,-0.2l1.4,-0.4l1.3,0l0.4,0.3l1,0.1l1,-0.5l0.8,-0.2l0.3,0l0.8,0.6l1.3,1.2l0.8,0.3l3.1,0.6l2.2,0.2l1.1,-0.5l0.4,-0.4l0.7,-0.1l1.1,0.2l1,0.8l2.4,0.8l1.5,0.1l1.8,-0.6l1,-0.1l1,-1.3l1,-0.2l1.5,0.3l0.9,-0.4l1.8,0.8l1.2,0.8l0.6,4.4l0.7,0.9l1,2l-0.1,1l-0.9,1.5l1,0.1l19.2,9.7l0,0l-0.9,0.5l-1.2,0.1l-1.2,1.9l-1.1,0.5zm-45.8,9.6l-0.8,-0.3l-0.1,-0.6l0.3,-0.9l1.7,0.4l0.4,0.5l-0.1,0.2l-0.7,0l-0.7,0.7zm-0.1,1.9l-0.4,-0.5l-0.5,-0.2l-1.7,0.1l0,-0.1l0.8,-0.7l1,-0.2l0.3,0.2l0.5,1.4l0,0z" class="st0" id="AU-VIC"/>
   <path d="m349.4,-37.9l0,0.2l0.7,0.6l-0.6,-1.9l-0.7,-1.5l0,-0.6l0.4,-1.1l0.4,-0.6l0.5,-0.1l0.4,0.2l0.8,1.3l0.5,1.4l1.3,0.5l1.7,1.2l1.2,0.6l-0.6,-1.5l0,-0.9l0.3,-0.6l0.8,0.1l0.8,1.1l-0.3,0.7l0.1,0.6l1.5,2.1l-0.7,4.7l0.6,1.3l-0.1,1.7l0.7,1.5l0.9,0.5l0.8,0.1l0.3,0.7l0.7,0.6l0.5,1.5l0.8,0.4l0.4,0l0.5,0.4l1.1,1.4l0.7,0.2l0.6,0.5l-0.2,0.3l0.1,0.3l0.3,0.1l0.5,-0.5l0,-0.6l0.3,-0.2l0.5,0.1l1.1,1.3l1.6,1.4l0.8,2.5l1.3,2.2l1.6,1.2l1.5,0.6l0.5,0.6l0.3,0.8l0.1,1.4l1.8,2.9l1.5,0.4l1.1,0.1l0.4,1.8l-0.1,1.1l-0.4,0.4l0.1,1.4l0.2,0.7l0.4,0.3l0.3,0.1l0.6,1.4l1.6,0.7l0,0.3l-0.5,1.1l-0.7,2.9l0.2,0.8l0.3,3.6l0.3,0.7l0.1,4.3l-0.7,0.2l-0.7,0.9l0.3,1.7l1.2,0.9l0.9,1.1l0.7,2.3l0.9,1.3l0.3,0.9l-0.2,1.6l0.5,1.4l0.5,0.7l0,0l-0.8,0.7l-1.2,0.5l-1.5,0.3l-0.8,1.1l-1.8,-0.1l-2,0.2l-1.8,-0.4l-0.7,-0.7l-0.5,-0.1l-0.6,0.5l-0.2,0.6l-0.4,0.3l-2.2,0.7l-1.2,0.6l-1,0.8l1,2.2l-0.4,2l-2.1,1l-0.7,-0.3l-0.4,-0.8l-1.9,0.8l-1,2l-0.5,0.6l-0.5,0.1l-0.2,-0.1l-0.4,-1l-0.1,-1.9l-2.7,-2.5l-2.7,-1.2l-1.6,0.3l-1.8,-0.1l-0.8,-0.5l-0.8,-0.9l-0.3,-0.1l-1.5,0.2l-1.6,0.6l-3.3,0.3l-1,-0.3l-0.2,-0.4l-0.3,-0.1l-1.2,0.3l-3.5,2.9l-1.3,1.6l-0.8,0.4l-32.5,0l0,0l-13.8,0l0,0l-16.9,0l0,0l-21.8,0l0,0l-1.3,0l0,0l0,-36.5l-32.6,0l0,0l0,-109.3l0,0l2.1,1.7l1,0.4l2.1,0.5l1.7,-0.1l0.5,0.4l1.7,0.7l1.8,0.3l1.4,2l0.2,1.5l0.5,1.1l0.5,0.5l0.8,0.3l1.1,0.1l1.1,0.7l0.9,0.9l2.1,0.6l0.7,0.4l1,0.9l0.4,0.2l1.2,0.1l2.9,-0.5l1.5,-0.6l0.9,-0.5l1.5,-1.2l0.8,-0.3l0.6,-1l0.6,-2.4l0.2,-1.7l2.6,-3.3l1,-2.3l0.3,-1.6l1.2,-3.2l-0.3,-1.9l0.6,-4.1l1.9,-4.3l0.3,-1.4l-1.1,-2.9l-0.5,-3.2l0.2,-0.9l0.6,-1.6l0.1,-1.2l-0.2,-0.9l-1.1,-1.3l-0.1,-1.3l0.8,-3.3l1.6,-3.1l-0.1,-0.5l-0.5,-0.6l-0.5,-1.9l0.1,-0.3l0.1,-0.2l1.1,-0.7l0.4,-0.5l0.5,-1.5l0.6,0.2l0.4,0.6l0,0.9l0.5,0.7l0.1,-0.5l-0.6,-1.8l-0.5,-0.4l-1.3,-2l0.3,-0.3l-0.2,-0.2l-0.7,0l-0.1,0.6l0.3,0.5l-0.6,0.2l-0.4,-0.2l0,-0.2l1,-2.2l1,-1.3l-0.2,-0.4l0.5,-1.4l0.5,-0.7l0.5,-0.2l0.3,1.3l1.2,-0.2l0.1,-0.3l-0.9,-0.9l0,-0.5l0.2,-1.3l1.7,-4.8l0.4,-2.4l-0.2,-1.9l0.1,-0.3l0.4,-0.3l1.7,-0.3l0.6,-0.8l0.5,-1.2l0.8,0l1,0.5l-0.3,0.5l-0.4,0.8l-0.1,1l0.7,-0.9l0.4,0l1.5,1.2l0.5,1l0.8,3.4l-0.3,1.3l0.3,2.2l-0.1,1.3l1.2,1l0.8,0.1l0.7,-0.3l0.3,0.1l0.7,0.8l-1,1.7l-0.2,0.9l0,1.2l0.6,0.2l0.3,-0.1l1,0.5l0.3,0.3l0,1.2l0.5,0.5l0.4,0l0.7,0.6l-0.6,1.4l-0.1,1.2l0.5,0.2l1.1,-0.1l0.1,0.2l-0.2,2.4l0.2,2.3l0.1,0.4l0.4,0.4l0.3,0.6l-0.1,1l-0.6,2.6l0.8,2l0.9,1l0.1,1.8l0.4,1.5l0.5,1l0.4,0.4l0.8,0.4l1.4,0l1.5,-1.2l3.1,-1.4l0.5,-1l0.4,0.1l0.7,1l-0.1,1.1l0.5,1.4l0.7,0.8l1.6,0.6l0.7,0l0.7,1.5l2.7,1.2l1.2,0.9l-0.1,0.7l-0.8,1.5l0,0.7l0.4,0.7l0.1,0.8l-0.4,1.3l0.6,1.2l0.6,2l0,2l0.5,0.6l0.6,1.3l-0.2,2.3l-0.4,0.6l-0.1,1.2l0.1,0.3l0.6,0.4l3.7,4.6l0.4,-0.3l1,-0.2l0.3,0.3l-0.8,1.6l0,0.3l0.8,1.3l0.9,2l0.6,2.1l0.2,1.6l-0.2,1.1l0.2,1.2l-0.1,0.8l-1,2.1l0.1,1.1l2.2,2.9l1.3,0.5l-0.1,1.3l-0.5,1.1l-0.1,1.2l0.1,0.4l0.6,0.8l1,0.7l0.3,0.5l1.3,0.8l1,0.5l1.2,0l1.3,1.3l0.7,0l1.3,0.4l0.7,0.7l1.2,0.3l1.9,-0.2l0.2,-0.3l-0.5,-0.8l0.6,0.7l1,1.9l0.4,2.2l0.3,0.5l0.5,0.6l0.6,0.1l0.5,-0.1l-0.2,-0.9l0.1,-0.4l0.7,0l0.3,0.3l0.1,1.3l0.5,0.5l0.6,0.3l1.4,-0.1l1.3,0.4l0.9,1l-0.4,0.1l0.1,0.3l0.6,0.8l0.9,0.7l0.6,-0.2l0,-0.7l-0.3,-0.3l0.1,-0.4l0.8,0.3l1.6,1.5l1,0.2l0.4,0.5l0.7,1.9l0.4,0.1l0.3,0.9l-0.6,-0.2l-0.5,-0.5l-0.4,-0.2l-0.5,0.2l-0.8,1l0.7,1.8l1.3,1.4l0.8,0.5l1.2,0.4l1.4,1.1l0.6,0.8l-0.1,0.9l0.4,1.4l0.5,0.5l0.4,1.4l0.6,1.1l0.6,0.6l-0.1,2.2l1,3.5l0.8,1.8l0.7,1l0.5,0.4l0,1.2l-0.3,0.5l0.7,-0.4l0.6,-0.5l0.3,-0.4l1.4,2.4zm33.7,38.2l-0.5,-0.1l-0.4,-0.6l-0.6,-2.1l0.6,-1.4l0.7,-1.2l0,-1l-0.1,-0.3l0.5,-0.9l1.1,-0.9l0.5,-1l0.1,-0.5l-0.1,-0.4l-0.6,-1.1l-0.2,-0.1l0.4,-0.8l0.9,-0.6l0.1,2.4l0.2,0.6l0.5,0.3l0.1,0.4l-2.6,6.2l-0.5,1.6l0.2,1l-0.3,0.5zm-151.2,-104.8l-0.1,-0.7l0.3,-1.2l0.6,-0.9l0.9,-0.7l1.9,-0.2l0.6,-0.3l2.1,0.3l0.1,0.7l-0.5,0.2l-0.8,0.3l-0.5,-0.4l-1,0.4l0.2,0.3l-0.7,1.1l-1.2,0.5l-1.6,0.3l-0.3,0.3zm131.1,80.9l-0.6,-0.6l-0.4,-0.9l-0.7,-0.7l-0.4,-0.9l-0.1,-0.8l0.5,-0.1l1.5,1l0.2,0.4l0.7,1.3l0.1,0.9l-0.3,0.4l-0.5,0zm-53.6,-61.2l-0.8,-0.3l-0.2,-1l-0.5,-0.7l-0.5,-0.2l-0.3,-0.5l0.5,-0.1l1.5,0.7l0.9,1.3l-0.3,0.6l-0.3,0.2zm77.3,108.5l-0.2,-0.4l0.1,-1l0.4,-2.4l0.4,-0.1l0.8,0.1l-0.7,2.4l-0.2,1.4l-0.6,0zm0.2,-4.5l-0.7,-2l0,-1.6l0.9,-0.5l0.2,0.2l-0.6,2.1l0.2,1.8zm-122.1,-190.2l-0.7,-0.6l0,-0.7l0.6,-0.4l0.5,-0.1l0.5,0.8l-0.1,0.4l-0.5,0.1l-0.3,0.5zm1.1,-5.6l-0.8,-0.3l-0.2,-0.4l0.4,-0.6l0.6,-0.1l0.4,0.2l0.2,0.4l-0.6,0.8zm-31,76.5l-0.3,-0.7l1.1,-1l0.6,0.4l0.2,0.8l-1.3,0l-0.3,0.5z" class="st0" id="AU-QLD"/>
   <path d="m316.2,236.5l-0.9,0.5l-0.2,-0.5l-1.4,-0.2l-0.9,-0.7l-0.9,-0.2l-2.4,-0.1l-0.2,-0.2l-0.2,-0.4l-0.3,-0.1l-1.3,0.4l-0.8,-0.3l-1.1,-1.8l0.6,-0.5l1.2,0.2l0.6,0.3l0.8,0.2l0,-1l-0.8,-0.6l-0.4,0.8l-2.9,-0.4l-0.2,-0.2l-1.2,-2.4l-1.4,-2.3l-0.2,-0.2l-0.7,0l-0.6,-0.9l-0.4,-0.9l-0.8,-2.8l-0.5,-0.5l-0.5,-0.2l-0.7,-4.4l0.1,-0.8l0.2,-0.3l0.3,0.5l1.9,1.5l0.5,2.2l0.9,-2.5l-0.6,-0.4l-0.5,0l-1.9,-2.1l-0.2,-0.6l0,-0.9l-0.2,-0.7l-0.7,-1.4l-1.4,-1.3l-1.1,-1.9l-2.9,-7.2l0.1,-0.5l-0.3,-1.5l-0.3,-0.6l-0.2,-1.4l0.9,-0.8l0,-1.7l0.7,-0.4l2.4,0.3l1.4,1l1.7,-0.3l0.7,0.6l2.2,0.7l3.6,2.1l3.5,1.6l2.3,0.2l1,-0.3l0.9,0.5l0,-0.5l0.9,-0.9l0.8,-0.3l0.6,0.2l0.2,1l0.6,0.3l0.9,0l-0.3,-0.5l-0.8,-0.2l-0.2,-0.2l0,-0.7l0.5,-0.5l1.7,-0.8l1.4,0.5l2.3,-0.5l0.7,0.6l0.8,-0.5l1.1,-1.9l0.2,-0.1l0.7,-0.2l0.3,0.4l1.1,0.5l0.4,0l0.7,-0.4l0.4,-0.6l0.2,-0.9l0.2,-0.2l0.5,0l0.7,0.3l1.5,1.1l0.6,0.8l0.6,1.4l-0.7,2.5l0.1,0.7l0.5,0.6l0,1.1l-0.5,1.7l0.1,1.2l0.4,1.1l-0.5,2.9l0.4,3.2l0.7,1.1l0.1,1.7l-0.6,0.8l-0.4,-0.3l0,-0.4l0.3,-0.4l0.1,-1l-0.8,-2.1l-0.5,-0.8l-1.3,2.5l-0.8,5.9l-0.5,0.5l-0.2,0.8l0.1,1.5l-0.8,0.8l-0.4,1.5l0.1,0.2l0.5,0l-0.2,-0.4l0.3,-0.2l0.7,0.4l0.3,0.5l0.1,1l-0.4,0.3l-0.2,1.3l0.6,1.3l-0.1,0.8l-0.3,0l-0.8,-0.7l-0.8,0.3l-0.4,0.6l-1,-1.2l-0.7,-1.5l-0.1,-0.7l0.6,-1.1l0.4,-0.1l0.3,0.2l0,0.4l-0.2,0.4l0.7,0.7l0.9,-0.1l0.3,-0.3l-0.8,-1.4l-2.5,-1.5l-0.4,0.1l-0.6,0.5l0.2,1l0.3,0.7l-0.3,0.6l-1.1,0.4l-0.2,-0.6l0.2,-0.1l-0.2,-1.5l-1,-0.6l0.3,0.9l-0.2,1.5l-0.6,0.8l-0.3,1.1l0.2,1l-0.2,1l-0.4,0.2l-0.4,0l-0.9,-0.6l-0.8,-0.9l-0.1,-0.9l-0.4,0.2l-0.2,0.4l0,1l1.4,1.2l-0.4,1.1l-0.6,0.9l-0.5,1.6l-0.2,1.1l-0.3,0.2zm13.2,-48.6l-1,-0.5l-0.3,-1.1l0.1,-0.3l-1.2,-2.3l-1.5,-1.4l1.3,-1.7l0.9,-0.4l2.1,2.9l0.4,0.3l0.8,0.2l0.1,0.4l0.5,2.8l0,0.4l-0.3,0.3l-1.4,0.2l-0.5,0.2zm-45.7,-2l-0.4,-0.3l-0.1,-0.7l0.2,-0.1l0,-1l-0.6,-0.8l0,-0.8l0.2,-2.3l0.9,-0.6l0.1,-0.4l-0.1,-0.8l0.5,-0.1l1,0.6l0.5,0.6l0.1,2.3l0.3,1.5l-0.1,0.8l-0.3,0.7l-2.2,1.4zm47.9,5.2l0,-0.7l-0.2,-0.3l-2.5,0.3l-1,-0.4l0,-0.5l0.7,-0.6l0.7,0l0.8,0.2l1.5,-0.8l1.5,1.8l0,0.1l-0.8,0.3l-0.7,0.6zm-11.2,43.8l-0.7,-0.3l-0.7,0.1l-0.6,-1.2l1.9,-2.4l0.7,1.8l-0.5,1.7l-0.1,0.3zm125.7,187.1l-0.5,0l0,-1.5l0.6,-2.8l0.2,-0.5l0.5,-0.3l-0.2,1.9l-0.6,2.1l0,1.1zm-125.1,-190.8l-0.8,-1.6l0.7,-1.2l0.4,0.7l0.4,1.8l0,0.2l-0.7,0.1zm7.1,-7.5l0,-2l0.6,-0.5l0.6,0l0.5,1l0,0.1l-0.8,0l-0.9,1.4zm-33.9,-29.4l-0.2,-0.1l0,-0.7l0.6,-0.8l1,1.1l-1.4,0.5z" class="st0" id="AU-TAS"/>
  </g>
 </g>
</svg>