<?xml version="1.0" encoding="utf-8"?>
<!-- Generator: Adobe Illustrator 22.0.1, SVG Export Plug-In . SVG Version: 6.00 Build 0)  -->
<svg version="1.1" id="Layer_1" xmlns:amcharts="http://amcharts.com/ammap"
	 xmlns="http://www.w3.org/2000/svg" xmlns:xlink="http://www.w3.org/1999/xlink"
	 viewBox="0 0 447 421" style="enable-background:new 0 0 447 421;" xml:space="preserve">
<style type="text/css">
	.st0{fill:#CCCCCC;stroke:#FFFFFF;stroke-width:0.5;}
</style>
<defs>


		<amcharts:ammap  bottomLatitude="-54.757221" leftLongitude="112.901452" projection="mercator" rightLongitude="158.966830" topLatitude="-10.132839">
		</amcharts:ammap>
</defs>
<g>
	<path id="AU-NT" class="st0" d="M195.3,27.6v-0.4l0.6-0.8l-1.5-1l0.3-0.8l0.4-0.2l1.5,0l0.1-0.4l-0.1-1l-0.3-0.6l0.3-0.4l1,0
		l1.1,0.7l1.4,0.1l1,0.7l0.6,0.1l4.8-0.3l1.4,0.5l1.8-1.2l1.5,0l0.6,1.2l-0.4,0.8l0.6-0.6l0.1-0.3l-0.2-1.3l0.2-0.4l1.4-0.5l1.1,0.4
		l0.7-0.1l-0.4,0l-0.8-0.6l-0.1-0.5l0.1-3.2l0.6-1l-1.6-1.2l-0.6-0.8l-0.4-0.3l-0.8-0.1l-1.6,0.3l-1.3,0.7l-0.2,0l-1.1-1.1l-0.2-0.7
		l-1.1-0.6l-1,0.1l-0.1-0.1l1.2-1.4l1.2-0.6l1.1,1.1l0.8,1.9l0.4,0l0.3-0.6l-0.5-1.5l-0.5-0.9l0.4-0.1l1,0.4l0.7-0.4l1.8,1.5
		l0.1,0.5l1.7,2.2l0.6,0.1l0.5-0.4l1.1-1.7l0.5,0l0.9,0.9l1.6,3l0.4,0.3l0.7,0.2l0.6-0.4l0.5,0l0.6,0.8l1.5,0.6l0.7,0l0.5-0.2
		l1.1-0.6l0.4-0.5l1.2,0.2l0.1,0.3l-0.8,0.4l-0.2,0.3l0.1,0.3l0.3,0.3l0.8,0.3l0.6-0.3l0.3-0.4l0.2,0l1.5,1.1l-0.1,0.2L231,21
		l0.2,0.2l1.8-0.3l0.6,0.2l1,0.1l0.9-0.1l0.8-0.6l1.1-0.1l1.1,1.5l1.4,0.7l0.9,0.8l1.2,0.1l0.4,0.2l-0.1-0.2l0.4-1.1l0.7-0.7
		l0.6-0.2l0.6,0.3l1.6-0.2l0.8-0.7l-0.2-0.1l-0.6,0.4l-0.1-0.3l0.2-0.8l1-0.3l0.7,0l1.4-1.1l0-0.8l0.4,0l0.4,0.4l-0.3,0.5l-1.9,1.6
		l0.5,0.5l-1.2,1.3l-0.1,0.4l0.2,0.5l0.5,0.5l0.6-0.2l0.2-0.5l0.9-0.7l1.5-0.4l-0.9,1.2l0.4,0.6l0.8-0.4l0.2,0.3l-0.9,1.3l0.3,0.7
		l0.3,0.3l0.4-0.3l0.8-0.1l0.1,0.3l0.8-0.1l0.6-0.5l0.8-1.9l-0.3-0.4l-1,0.1l-0.7-0.3l-0.1-0.3l1.1-1.1l1.8-1.2l1.2-0.2l-0.2,0.8
		l0.7,1.9l0.8,1.1l0.5,0l0.4-0.3l0-0.2l-0.7-0.3l0.1-0.2l0.9-0.2l1.1,0.6l1.1,1.5l-1.9,1.3l-0.6,0.7l-1.1,1.8l-0.2,1.3l-1.4-0.5
		l-0.1,0.7l0.7,1.2l0,1.1l-0.2,1l-0.8,1.1l-0.1-0.3l-0.9,0.3l0-2l-0.2-0.2l-0.3,0.1l-0.4,1.2l-0.9,0.8l-0.4,0l-0.1-0.4l-0.5-0.2
		l-1.1,0.4l-0.7,0.6l-0.4,0.7l0,0.3L250,36l-0.3,0.7l-0.5,0.4l-0.2,1.2l0.5,1.4l0.4,0.2l0.6-0.2l0.5-0.5l-0.1,0.8l-0.3,1.2l-0.7,1.1
		l-0.3,2l-0.3,0.6l-1.3,0.8l-1.4,1.8l-0.9,1.5l0,0.8l-1.4,0.9l-0.4,0l0.7,1.9l0.5,0.7l0.7,0.6l1.4,0.5l2,1.3l1,0.9l2.9,1.5l0.3,0.3
		l0.3,1.4l0.6,0.7l2.7,1.3l1.1,0.9l1,1.1l2.9,0.1l1.1,0.6l2.5,1.8l1.3,0.6l0.6,0l1.1,0.4l1,0.5l1.3,2.1l1.5,1.3l0,0v109.6l0,0
		l-73.5,0l0,0l-14.5,0l0,0l-9.7,0.1l0,0l-0.1-101.6l0,0v-21l0,0v-5.9l0,0l1,0.3l1,0.9l-0.1,2l0.2,0.2l0.7-0.9l-0.4-2.7l0.1-0.2
		l1.1,0.3l1.4,0.7l2.2,2.5L182,56l0.6-0.2l-0.7-1l-0.4-0.8l-0.1-0.8l0.2-0.5l0.1-0.8l1.7,0.3l0.7-0.2l0.9-0.8l-1.9,0.6l-1-0.6
		l-0.8-1l-0.2-0.5l0.4-0.2l0.9-0.1l0.7-0.5l0-0.2l-1.2,0.4l-1.3-0.2l-0.9-0.5l-1.1-1l0.1-0.9l0.6-1.2l0.7-0.9l2.6-1.6l0.6-2.8
		l-0.1-0.5l0.5-2l0.8-0.8l0.1,0.7l0.4,0.2l1.1-0.2l1.3-0.9l1.1-1.2l-0.1-0.4l-0.7-0.9l-0.4-0.3l-0.4-0.1l-0.1-0.2l0.1-2l0.2-0.5
		l0.4-0.2l0.1,0.3L188,31l0.4-0.1l0.7-0.5l0.3-0.6l-0.1-1.5l0.1-0.4l1.7-0.8l1,1.1l1-0.1l-0.9-0.3l-0.3-1.2l0.3-0.7l0.1-0.9
		l-0.3-0.2l0.5-0.2l1.5,0.5L195.3,27.6z M196,19.8l-1.1-0.9l-2-0.8l-2-1.6l-0.8-2.1l-0.6-2.2l0.1-0.8l0.2-0.2l1.5,1.3l0.4,0.7
		l1.4,0.4l1.5-0.4l0.6-0.6l1.1,0.5l1.3-1l0.3,0l0.2,0.8l0.6,0.8l0.1-0.3l-0.4-0.9l0.1-0.6l0.7-0.6l1.6,0.6l1.2,1.6l0.1,0.8l-2.8,2.9
		l-0.4,0l-1.3,0.9L196,19.8z M260.6,44.6l0.2-0.3l0.5,0l-0.3,1.4l-0.6,0.2l-1.5-0.4l-1.3,0.2l-2.8-0.7l0.4-1.9l-0.1-0.8l0.2-0.9
		l0.3-0.5l1.5-0.3l0.4-0.3l-0.3-0.7l0.9-0.8l0.5,0l-0.1,0.5l-0.4,0.3l0.4,1.2l1,0.2l0.4-0.4l-0.1-0.4l0.2-0.3l0.4-0.1l0.3,0.2
		l0.1,0.4l-1.1,1.1L259,42l-0.7,1.5l0,1l0.3,0.3l1.5,0.2L260.6,44.6z M190.9,18.7l-1.8-0.7l-2.5,0.6l-0.6-0.1l-0.2-0.3l-0.1-0.3
		l0.6-1.1l0.5,0.3l0.4,0l0.4-0.4l0-1.5l-0.2-0.5l0.9-1.6l1-0.2l1.6,4l0.8,0.2l0.8,0.7l-0.2,0.5L190.9,18.7z M256.2,14.5l0-0.5
		l1.5-2.1l0.9-1.9l0.5-0.3l-0.5,2l-1.8,2.5l-0.2,0.2L256.2,14.5z M213.7,13.3l-0.3-0.3l-0.4-1.1l-0.3-1.8l0.8-0.3l0.5,1.7l0,1.1
		L213.7,13.3z M262.1,63.1l-0.6-0.5l-0.7-1L261,61l0.6-0.6l0.5,0.6l0.4,1.3l-0.3,0.7L262.1,63.1z M252.9,41.1l0-0.4l-0.4-0.6
		l-0.3,0.2l0.2,0.5H252l-0.2-0.2l0.1-0.9l0.9-0.8l0.5,0.1l0.5,0.7l-0.1,0.7l-0.4,0.6L252.9,41.1z M252.7,17.1v-0.5l1-0.8l0.8,0
		l1.4-1.1l-0.1,0.6l-1.1,0.8L252.7,17.1z M256.4,61l-0.3-0.1l0.2-0.9l0.6-0.4l0.3,0.1l-0.2,1.2L256.4,61z"/>
	<path id="AU-WA" class="st0" d="M14.5,180.8l0.2-0.4l0-1.5l-2.4-2.6l-1.3-2.4l-1.2-3l-1.1-0.7l-1-2.8l-0.1-0.5l0.1-1.1L7,164.8
		l-1.4-1.6L5.2,162l-0.1-2.4l0.4-1.1l0.2-1.5l0.9-3l0.8-1.5l1.5-1.2l0.3-1l0.1-1.3l-0.2-1.6l0.6-1.9l-0.1-1.1l-0.6-1.6l-0.9-1.3
		l-0.2-0.9l1.6-3.2l1.4-4.2l1.1-1.6l0.6-0.4l0.8-0.1l0.1,0.3l-0.5,1l-0.5,3.1l0.7,1.5l-0.3,2.2l0.5,0.5l2.4-1l0.3-1.2l0.7-1.7
		l1.8-3.1l0.3-1l3.2-1.8l1.2-0.1l2.1-1l2.2-0.9l1.8-2.2l0.7-0.5l1.4-0.6l1.3-1.9l2.5-1.2l0.3-0.7l0.7-0.4l0.7-0.1l1.8-0.6l1.4-0.9
		l1.1-0.9l0.9,0.2l0.5,0.5l0.5,0.1l2.1-1.1l1.1,0.4l0.3,0.4l0.8,0.3l0.8,0.2l0.7,0l3-0.6l1.8-0.8l2.4-2.3l1.2-0.7l0.2,0.3l0.5,0
		l3.4-0.6l1.2,0.1l1.6-0.5l1.6-1.9l0.3-0.9L67,110l1.2-0.1l2.7,0.7l1.6,0.6l2.2-1.1l4.9-0.7l1.1-0.3l5.9-2.4l1.6-0.8l2.7-2.3
		l2.3-3.1l1.6-3.5l1.5-2l-0.1-0.9l0.4-0.9l0.3-0.2l0.7,0.2l0.5-0.3l0.8-0.6l0.6-0.8l0.7-0.3l2.3-1.8l0.3-0.8l-0.1-0.6l-0.3-0.3
		l-0.9-0.2l-0.5-0.7l-0.1-2.1l-0.6-1.7l0-2.2l0.3-1.3l0.9-1.5l1.3-1.3l0.7-0.5l1.4,0l-0.6-1.2l0.5-0.6l0.3-0.1l0.2,0.2h0.3l1.2-0.4
		l0.1-0.3l-0.3-0.4l0.3-1.1l0.3-0.3l0.6-0.1l0.6-0.6l0.1-0.6l0.2-0.4l0.8-0.3l0.7,0.7l-0.2,0.3l-0.5-0.1l-0.4,1.2l0.7,0.9l0.8,0.5
		l0.2,0.9l2.1,3.9l2.7,4.3l0.2,0.9l0.2-1l-0.4-0.7l0-0.9l0.6-1.8l-0.5-1.5l0.2-0.9l0.7,0l1.4,1.7l0.8,0.7l0.4,0.2l0.3-0.2l-0.4-0.2
		l-0.5-0.6l-0.4-1.6l1-1.2l-0.4-0.2l-0.8,0.2l-0.2-0.1l-0.5-1.1l-1.2-1.3l0.1-1.2l-1.2,0l-0.8-0.8l0.7,0l1.6,0.4l0.7-1.1l0.1-0.6
		l-0.1-0.4l-1.2-0.2l-0.4-0.3l0-1l0.2-0.3l1.7-0.4l0.9,0.7l-0.2,0.5l-0.6,0.2l1.2,1.2l0.6,0.1l0-0.4l0.8-1.1l1.3,0.2l0.6,0.3
		l0.3,0.2l0.4,0.9l0.3,0.2l1.1,0.1l0.6-0.6l1,0.5l1.1,0.1l1.6-0.2l1.2,0.5l0.6-0.3l-0.8-0.1l-1.3-0.6l-0.9-0.2l-0.6,0l-0.9,0.3H125
		l-0.2-0.2l-0.3-1.2l0.6-1.3l0.4-0.1l0.5,0.8l0.8-0.6l-0.1-1l0.3-1.2l1.2-1.2l-0.6-0.2l-0.6,0.2l-0.9,1.5l-0.5,0l-0.9-0.8l-0.3-2.2
		l0.9-2.1l0.3-0.2l1,0.6l0.8-0.4l0.2-0.3l-0.1-2.2l0.5-0.1l2.2,1.2l0.9,0.8l2,1l-1.1-1l-0.1-0.2l0.5-1l-0.2-0.2l-0.9,0l-1.1,0.4
		l-0.1-0.6l0.4-0.6l0.4-0.2l0.3,0.2l0.4-0.7l-0.3-0.1l-1.4,0.9l-0.3,0l-0.3-0.8l0.4-0.5l0.5-0.2l0.6,0.2l0.2-0.1l0.6-0.4l-0.2-0.4
		l0.6-0.5l0.8,1.7l0.2,0.1l0.1-0.5l-0.1-1l1.3,0.8l0,0.4l0.4,0.2l1,0l0.2-0.2l-0.2-0.2l-0.3,0l-0.3-0.3l0.3-0.3l-1.2-0.8l-1.1-0.5
		l0.4-0.4l0.3-0.1l-1.2-1.7l1.2-1.7l1-0.8l0.6,0.2l2.2,0l0.1-1.4l-0.2-1.3l0.1-0.8l0.3-0.2l1.2,0.6l-0.9,4l0.2-0.2l0.7-2.3l1.3,0.7
		l-0.2,1.2l0.2,0.4l0.6,0.4l1-1.1l0.5-0.4l0.3-1.9l0.8-1.7l0-0.7l-0.7-1.8l-0.7-0.4l0.5-0.1l0.9,0.1l0.8,0.4l-0.1,0.8l-0.6,0.2
		l0.4,1.2l0.5,0.1l0.6,0.6l0.3-0.4l-0.2-0.6l0.4-1l1.1-0.8l0.8-0.1l-0.5,1.2l1.2,1.6l0.4,0.1l1.1-1.2l0.9-1.7l-0.5-2l1.2-0.5
		l1.1-0.2l0.7,0.5l0.6,0.8l-0.2,0.4l0.8,1l0.3-0.4l0-0.4l0.9,0l2,0.6l1,1.5l1.5,1l3.2,4.5l0.5-0.2l1.8,1.6l0.2,1.1l-0.5,0.8
		l-0.8,2.6l0.1,1.2l-0.1,2.1l-0.6,1.1l0.5-0.3l0.3-0.4l0.4-2.5l0.5,0.2l0.8,0.8l0.3,1.1l0.1-1.1l-0.7-1.3l-0.4-1.4l1.2-1.7l0.2,0
		l0.3,1.4l1,0l0.1-0.5l-0.4-0.8l-0.3-1.5l1.6-0.5l5,1.3l0,0v5.9l0,0v21l0,0l0.1,101.6l0,0l-0.1,70.2l0,0l-2.2,1l-2.6,1.5l-4,1.8
		l-1.9,0.7l-3,0.6l-4.4,1.7l-2.3,0.4l-4.8,0.2l-3.1-0.3l-2.4-0.7l-1.2,0.6l-1.1-0.2l-1.8,1l-3.2,2.6l-0.8,0.3l-1.5,0.3l-3.3,1.8
		l-1.3,1.1l-1.4,0.9l-3.7,0.6l-1.3,0.5l-1,0.8l-0.9,1.2l-1.1,3.3l-0.5,2.1l-1,0.7l-1,1l-0.4,0.7l0,0.4l-0.5,0.5l-1.6,1.1l-1.9-0.1
		l-0.3,0.1l-0.7,0.9l-0.5,0.4l-0.7,0.2l-0.7-1.7l-0.9-0.4l-1.9,0.6l-1.2-0.2l-1.5,0.1l-0.2,0.2l-1.6,0.2l-0.9-0.2l-0.6,0.2l-0.4,0.5
		l-0.1,0.7L100,281l-0.4-0.1l0.2-0.5l-0.3-1.1l-0.6-0.8l-0.2-0.1l-0.8,0.1l-0.6,0.6l-0.9,0.2l-2.8-1l-0.7,0l-1.4,0l-3.1,0.5h-2.1
		l-0.8,0.4l-2.7,0.4l-1.3,0.7l-1.8-0.5l-2.7-0.1l-2.1,0.6l-0.8,0.9l-1.3,0.7l-0.6,0.6l-0.9,1.6l-0.2,0.8l-1.5,1.5l-1.3,0.8l-1.4-0.5
		l-1.8-0.2l-1.9,1.3l-0.2,0.3l0.4,0.4l-0.4,0.4l-0.9,0.5l-1.8,0.6l-0.6,0.7l-0.3,0.9l-1.2,0.9l-2.2,1.2l-2.7,0.5l0,0.3l0.3,0.3
		l1.5,0.3l-0.7,0.4l-0.8-0.1l-0.8-0.6l-0.6-0.2l-0.7,0l-0.3,0.2l-0.2,0.9l-0.8-0.7L48,294l-4.1,0l-0.6,0.5l-0.2,0l-1.6-0.5l-1.3,0.2
		l-1.5-0.4l-2.6-1.8l-2.6-0.6l-0.7-1.5l-1.1-1.2l-1.8-1.8l-1.6-1.1l-2-1l-0.8-0.1l-0.8,0.2l-0.5,0.6l-1.2-1.3l0-1.1l-0.6-4l0-2.3
		l0.5-2.2l0.5,0.1l0.7,1l1.3,0.5l1-0.1l0.9-0.3l0.4-0.2l3.1-4.4l-0.5-3.6l-0.8-4l0.2-0.9l0.8-1l0,0.4l-0.6,0.7l0,0.5l0.4,1.2
		l0.3,0.5l0.2-0.1l0-0.7l0.5-1.8l-0.3-3.2l0.2-1.6l-0.2-1.2l0.1-2.6l-0.4-2.2l-0.3-0.7l-2.6-4.8l-0.8-2.2l-0.6-1.5l-1.5-2.7
		l-1.3-3.4l0.1-0.3l-0.3-2.5l-0.7-2.5l-0.2-0.2l0-4.9l0.4-2.3l-0.5-1.9l-0.3-0.4l-0.2-1.2l-0.6-1.4l-2.3-2.8l-0.3-0.9l-0.1-2
		l-0.9-1.8l-2.1-3.2l-0.8-0.5l-0.8-1.2l-0.6-2.9l0.1-0.9l0.4-0.9l-0.2-1.3l-0.5-1.9l-1.5-3.1l-1.5-2.8l-2.3-3.4L4,185.6l-0.6-1.9
		l0.5-1l-0.1-1.1l0-0.3l0.2-0.1l0.2,2.3l0.3,0.7l0.3-1.9l1.6,2l0.2,0.6l0.1,2.1l0.2,0.7l0.8,1l0.3,0.1l0-0.3l0.7-0.5l0.5,0.1
		l0.8-1.2l0.1-2.1l-0.8-1l-1.5-1L7,181.7l-0.6-2.6l-1.1-1.8l0.2-1l0.7-1.1l0.3,0.2l1,1.8l1.1,1l0.4,1.1l-0.3,1.4l-0.3,0.3l0,1
		l0.3,0.9l0.6,0.1l0.4-0.4l0.9-1.7l0.6,2.8l0.3,0.8l1.2,1.6l1.4-1.1l0.3-1l-0.3-0.5l-0.2-0.9l0.4-2.3L14.5,180.8z M3.2,182.5
		l-0.3-0.3l-1.6-2.4l-0.8-1.6L0,176.3l0.1-1.1l0.4-0.6l0.5,0.1l-0.2,0.5l0,0.3l1.3,3.7l1.1,2l0.2,0.8L3.2,182.5z M126.1,58.8
		l-0.1-0.3l-0.6-0.5l0.1-0.5l0.3-0.4l0.7-0.3l0.9,1.6L126.1,58.8z M26.7,120.5l-0.4-0.3l-0.3,0.3l-0.1-0.1l0-0.6l1.1-1.5l0.4-0.2
		l0.1,0.1l0.1,0.8l0,0.3l-0.6,1L26.7,120.5z M132.8,49.8l-0.6-0.3l0.1-0.8l0.2-0.6l0.5-0.5l0.5,0.6l-0.2,1.2l-0.4,0.2L132.8,49.8z"
		/>
	<path id="AU-ACT" class="st0" d="M392.3,306l-1.3-0.6l-1.4-2.1l-0.3-0.8l0-1.8l0.5-2.6l2.9-2.1l1.3,0.7l0.6,0.7l1,0.4l0.7,0.4
		l-0.5,0.4l-1-0.1l-0.8,0.4l-0.5,0.7l-0.6,2.5l0.2,2.8l-0.1,0.4L392.3,306z"/>
	<path id="AU-NSW" class="st0" d="M402.4,327.5l-19.2-9.7l-1-0.1l0.9-1.5l0.1-1l-1-2l-0.7-0.9l-0.6-4.4l-1.2-0.8l-1.8-0.8l-0.9,0.4
		l-1.5-0.3l-1,0.2l-1,1.3l-1,0.1l-1.8,0.6l-1.5-0.1l-2.4-0.8l-1-0.8l-1.1-0.2l-0.7,0.1l-0.4,0.4l-1.1,0.5l-2.2-0.2l-3.1-0.6
		l-0.8-0.3l-1.3-1.2l-0.8-0.6l-0.3,0l-0.8,0.2l-1,0.5l-1-0.1l-0.4-0.3h-1.3l-1.4,0.4l-0.2,0.2l-0.4,1.4l0.2,1.4l-1.9,0.5l-0.4-0.1
		l-1.3-0.8l-2.3-2.7l-0.6-1.3l-0.2-0.3l-0.6-0.2l-1.1-1l-0.8-1.2l-1.9-1l-1.7-1.3l-0.8-0.3l-0.5,0.1l-0.7-0.5l-0.2-0.3l0.2-0.8
		l-0.4-0.6l-0.9-0.2l-0.8-0.5l-0.5-1.1l-0.3-1.6l0.3-1.3l0-0.8l-0.1-0.2l-2.3-1.3l-1.6-0.1l-1.3-0.5l-0.1-0.4l-0.7-0.5l-0.6,0.2
		l-0.2,0.3l-0.4,1.5l-0.5,0.6l-0.9-0.2l-0.4-0.4l0-0.3l-0.6-1.5l-0.9-0.9l0-1.9l-1.5-2.5l-0.9-0.6l-1.2-0.6l-1.7,0.4l-1.6-0.4
		l-1,0.4l-0.6,0.8l-0.5,0.3l-0.2-0.3l-1.2-0.7l-1.8-0.8l-1.9-0.1l-0.3-0.1l-0.5-0.5l0,0l0-63.7l0,0l1.3,0l0,0l21.8,0l0,0H345l0,0
		h13.8l0,0h32.5l0.8-0.4l1.3-1.6l3.5-2.9l1.2-0.3l0.3,0.1l0.2,0.4l1,0.3l3.3-0.3l1.6-0.6l1.5-0.2l0.3,0.1l0.8,0.9l0.8,0.5l1.8,0.1
		l1.6-0.3l2.7,1.2l2.8,2.4l0.1,1.9l0.4,1l0.2,0.1l0.5-0.1l0.5-0.6l1-2l1.9-0.8l0.4,0.8l0.7,0.3l2.1-1l0.4-2l-1-2.2l1-0.8l1.2-0.6
		l2.2-0.7l0.4-0.3l0.2-0.6l0.6-0.5l0.5,0.1l0.7,0.7l1.8,0.4l2-0.2l1.8,0.1l0.8-1.1l1.5-0.3l1.2-0.5l0.8-0.7l0,0l0.8,0.7l0.1,0.8
		l-0.4,2.7l0.2,1.4l0.5,0.7l-0.2,2.5l-1.7,2.2l-1.2,3.5l0.3,0.9l-1.2,6.9l-0.5,2l-2,5.7l-0.1,3.4l0.2,0.6l0.4,0.1l0.2,0.8l-1.1,3.7
		l-0.2,1.5l-1.1,3.8l-1,2l-2.2,2.8l-0.5,1.3l0.3,1.7l-0.1,1.8l-1.9,1.6l-0.8,0.9l-1.7,1l-0.1,0.5l0.3,0.6l-2.1,0.7l-1.5,0.8
		l-1.5,2.3l-1,2.5l-0.2,0.2l-0.5,0l-0.5,0.4l-0.1,0.6l0.5,0.4l-0.4,1.4l-1.2,1.7l-0.5,3.5l-0.3,0.9l-0.4,0.3l-0.6-0.1l-0.9,0.3
		l0.6,0.2l0.4,0.4l-0.9,1.4l-1,0.7l-1,1.4l-1,3l0.4,0.5l-0.5,2.5l-0.7,0.4l-0.2,0.8l0.4,1.1l0.8,0.8l-0.2,0.9l-0.3,0.2l-0.4-0.4
		l0.1-0.3L411,294l-0.3,0l-0.7,0.4l-0.1,0.4l0.3,0.7l-0.6,0.7l-1.2,0.6l-0.6,1.1l-0.1,0.6l-0.8,2.3l-0.5,0.9l-2.1,4.6l-0.3,2.3
		l0,2.9l-0.6,0.8l-0.6,3.2l-0.6,2.2l-0.7,1.7l0,2l1.1,1.2l0.1,0.9l0,0.5l-0.3-0.1l-0.5,0.3l0,1.6L402.4,327.5z M392.9,305.2l0.1-0.4
		l-0.2-2.8l0.6-2.5l0.5-0.7l0.8-0.4l1,0.1l0.5-0.4l-0.7-0.4l-1-0.4l-0.6-0.7l-1.3-0.7l-2.9,2.1l-0.5,2.6l0,1.9l0.3,0.8l1.5,2.1
		l0.3,0.2l1.1,0.4L392.9,305.2z"/>
	<path id="AU-SA" class="st0" d="M254,283.3l-1.1,1.7l-0.9,0.4l-0.9,1.6l-1.1,0.7l-0.7,1.3l-0.8,2.3l0.3,0.1l0.5-0.1l1.4-1l0.1,0.7
		l-0.2,2.6l-0.5,0.2l-0.3-0.5l-0.9-1l-0.6-0.4l-0.7,0.1l-0.5,1.1l-0.4,0l-0.4-0.8l-1.4-1.9l-1.6-1.7l-0.9-0.7l-0.4-0.1l-1.1,0.4
		l0.4-1.2l0.6-0.9l0.1,0.8l1.4,1.5l0.6,0.4l1.1-0.4l-1.1-0.4l-0.1-0.4l-0.1-0.3l0.2-0.4l-0.5-2.7l-0.8-2.2l-0.1-1.5l-0.7-1.1l-1.7-2
		l-2.1-1.7l0.3-1.2l-0.1-0.9l-0.5-1.5l-1.1-2.3l-1.2-0.5l-2,0.3l-0.9,0.5l-0.7-0.7l0-0.3l-0.8-2.1l-1.3-3l0.9,0.1l0.4,0.4l0.1,0.6
		l0.7-1l0.2-0.7l-0.2-1.1l-0.8-1.1l-0.7-0.6l-0.3,0l-1.7,0.5l-0.7,0.7l-0.4-0.1l0-1l0.3-0.7l0.6,0.2l0.2-0.3l-1.4-1.9l-1.1-0.6
		l-0.7-0.6l0.1-0.5l-0.7-0.2l-0.3,0.2l-0.2,0.6l-0.9,0.6l-3.5-0.2l-0.3-0.1l-0.8-0.8l-1-0.4l-1.5-1.4l-0.5-0.3l-2.2-0.3l-1,0.2
		l-0.8,0.8l-0.9,0.3l-0.7,0.1l-0.8-0.2l-1.8-1.9l-2.8-2l-4.4-2.3l-2.4-0.9l-0.4,0l-1.1,0.9l-1.8,0.7l-0.6,0.1l-5.8-0.4l-1.2,0
		l-2.3,0.2l-1.1,0.3l-6.6,0.6l-2.5,0.4l0,0l0.1-70.2l0,0l9.7-0.1l0,0l14.5,0l0,0l73.5,0l0,0H305l0,36.6l0,0l0,63.7l0,0l-0.3-0.4
		l0,54.4l0,0l-1.3-0.1l-0.9,0.3l-0.8,0l-1.8-1l-1.9-1.9l-1.3-2.6l-1.3-1.9l-0.8-0.5l-0.6,0l-2-2.6l-0.7-1.4l0.3-0.7l0-0.5l-0.5-1.3
		l0.2-1.2l0.8-0.6l0.4-1.1l0-1.8l-0.4-1.4l-1.9-4.6l-3-4l-2-2.1l-1.2-0.9l0.5,0.2l3,2.6l2,2.7l0.8,1.7l-0.1-0.9l-0.5-1.4l-0.4-0.6
		l-1.3-1.5l-3.8-3.6l0-1.2l0.7-0.3l0.8,0.7l-0.1,1.7l0.2,0.2l1-0.1l0.3-1.2l0.1-1.8l-0.2-1.3l-1.6-0.8l-0.8,0.8l-0.6,0.2l-0.6,0
		l-0.5,0.2l-0.2,0.5l0.1,0.4l0.6,0.2l0.2,0.3l-0.5,0.6l-2.9-0.2l-0.8,0.3l-0.6,0.8l-0.6,0.4l-3.9,0.2l-0.9-0.7l0.6-1.1l1.4-0.7
		l1.7-1.8l0.3-1.8l-0.1-0.5l0.1-0.8l0.5-1.2l-0.4-2.1l0.2-1.2l-0.1-0.6l-0.7-1.1l-1.7-2.1l-0.6-2.2l-1.4-2.4l-0.3,0.1l-0.7,1.5
		l0.3,0.6l-0.2,0.5l-1,1.1l-0.4,1.3l-0.1,2.4l-1.4,4.5l0,1.1l-0.8,0.6l-1.5-0.7l-0.8-0.2l-0.4,0.1l-2,0.8l-0.5,0.8l-0.3,0.2
		l-1.5-0.2l-0.8,0.7l-0.6,0.2l-0.4-0.2l-0.3-0.5l0.4-0.6l0.7-0.7l0.3-0.6l0.2-1.9l0.5-0.8l0.9,0.4l0.9-0.2l1-0.1l0.2,0.3l0.9,0.4
		l0.5-0.3l0.2-0.5l0.5-3.1l-0.2-2.5l0.1-2.4l-0.5-1.6l0.2-0.2h0.5l0.3-0.6l0.5-1.8l0.1-0.9l1.9-2.4l1.2-1.2l0.5-0.1l0.2-0.5
		l-0.4-1.5l-1.1-2.1l0.3-1l0.6-0.4l0.6-0.2l0.7,0l0.3-0.2l-0.1-0.7l-0.3-0.6l-0.6-0.2l-0.6-2.9l-0.6-1.3l-0.3-1.5l-0.6-0.4l-0.1,2.1
		l0.2,0.1l0.2,0.4l0.1,1.4l-0.4,1.9l-0.6,0l-1.4,0.4l-1.2,1.3l-1.1,2.2l-0.1,1.1l-0.2,0.6l-1.6,3.1l-0.7,0.6l-1.3,0l-0.8-0.5
		l-0.7,1.1l0.2,0.1l-0.4,0.4l-3.1,1.6l-1.8,1.4l-0.6,0.6l-0.1,0.4L254,283.3z M271.4,303.5l1.6,0.5l0.5,0.7l0,0.7l-0.8,0.7l-1.3-0.6
		l-1.7-0.1l-1.5,0.7l-0.2,0.3l0.1,0.9l-0.3,0.3l-1.4,0.7l-1.1-1.1l-1.4-0.3l-0.4,0.1l-0.1,0.5l-0.3,0.2l-1.3-0.1l-1.4,0.2l-2,0.1
		l-0.4-0.6l-1.5-1.3l0-0.5l0.5-1.5l4-1.2l0.9,0l1-0.2l2.1-1l2.3,0.2l0.6,0.6l0,1.1l0.1,0.2l1,0.1l1.1,0.6l0.6,0L271.4,303.5z"/>
	<path id="AU-VIC" class="st0" d="M398.1,330.5l-1.3,0.6l-1.6,0.2l-5.2,0l-1.8,0.3l-1.8-0.1l-2,0.1l-3.8,1.1l-2.2,1.1l-2.4,1.8
		l-1.8,1.7l-1.7,1.7l-2.6,3.1l-1,0.9l-2.4,0.3l-2.4,0.6l-0.9-0.3l-1,0.1l-0.5,0.2l-0.4,0.6l1.2,2.2l1.2-0.9l0.2-0.8l0.4,0.2l0.2,3.8
		l-0.6,0.8l-0.3,0.2l-0.5-0.2l-0.3-0.5l-0.8-2.1l-1.1-1.4l-0.8-0.4l-0.5,0.2l-0.1,0.4l-1.1-0.1l-0.9-1.8l0.3-0.4l-0.3-0.6l-1-0.1
		l-0.8,0.5l-0.5,0.1l-0.5-0.3l-1.6-1.6l0.2-1.3l1-0.4l0.4-0.7l-0.8-1.7l-0.5-0.3l-2,0.1l-0.5,1.5l-2,2l-1,0.2l-0.4-0.1l-1.5-1.8h1.3
		l1.1-0.5l1.6-2.8l-0.4-1.3l-1.3-2.1l-0.6-0.3l-1,0.5l-1.5,1.4l-1.8,1.3l-1.5,0.2l-0.2,0.2l0.1,0.5l1.5,0.3l0.8-0.3l0.5-0.4l0.8,0.2
		l0.2,0.4l-0.1,0.6l-0.6,0.9l-0.3,0.2l-0.9-0.2l-1.7,0.4l-0.4,0.2l-3.3,2.2l-2.4,2.9l-1.2,0.3l-0.4,0.3l-0.2,0.6l-1.4,1l-0.4-0.1
		l-0.7-0.8l-0.6-0.4l-2.2-0.7l-0.5-0.5l-0.9-0.6l-0.8-0.1l-1.8-0.7l-2.9-2.2l-1.7-0.7l-1.2,0.3l-0.2,0.2l-1,0l-1.1-0.6l-1.1-0.9
		l-1.6-0.3l-0.8,0l-0.8,0.2l-0.6,0.5v0.4l0.3,0.6l-0.9,0.2l-1.3-0.6l-0.9-1.1l-1.9-1.8l-1-0.6l-1.5-0.7l0,0l0-54.4l0.3,0.4l0,0
		l0.5,0.5l0.3,0.1l1.9,0.1l1.8,0.8l1.2,0.7l0.2,0.3l0.5-0.3l0.6-0.8l1-0.4l1.6,0.4l1.7-0.4l1.2,0.6l0.9,0.6l1.5,2.5l0,1.9l0.9,0.9
		l0.6,1.5l0,0.3l0.4,0.4l0.9,0.2l0.5-0.6l0.4-1.5l0.2-0.3l0.6-0.2l0.7,0.5l0.1,0.4l1.3,0.5l1.6,0.1l2.3,1.3l0.1,0.2l0,0.8l-0.3,1.3
		l0.3,1.6l0.5,1.1l0.8,0.5l0.9,0.2l0.4,0.6l-0.2,0.8l0.2,0.3l0.7,0.5l0.5-0.1l0.8,0.3l1.7,1.3l1.9,1l0.8,1.2l1.1,1l0.6,0.2l0.2,0.3
		l0.6,1.3l2.3,2.7l1.3,0.8l0.4,0.1l1.9-0.5l-0.2-1.4l0.4-1.4l0.2-0.2l1.4-0.4h1.3l0.4,0.3l1,0.1l1-0.5l0.8-0.2l0.3,0l0.8,0.6
		l1.3,1.2l0.8,0.3l3.1,0.6l2.2,0.2l1.1-0.5l0.4-0.4l0.7-0.1l1.1,0.2l1,0.8l2.4,0.8l1.5,0.1l1.8-0.6l1-0.1l1-1.3l1-0.2l1.5,0.3
		l0.9-0.4l1.8,0.8l1.2,0.8l0.6,4.4l0.7,0.9l1,2l-0.1,1l-0.9,1.5l1,0.1l19.2,9.7l0,0l-0.9,0.5l-1.2,0.1l-1.2,1.9L398.1,330.5z
		 M352.3,340.1l-0.8-0.3l-0.1-0.6l0.3-0.9l1.7,0.4l0.4,0.5l-0.1,0.2l-0.7,0L352.3,340.1z M352.2,342l-0.4-0.5l-0.5-0.2l-1.7,0.1
		l0-0.1l0.8-0.7l1-0.2l0.3,0.2L352.2,342L352.2,342z"/>
	<path id="AU-QLD" class="st0" d="M402.4,140.1v0.2l0.7,0.6l-0.6-1.9l-0.7-1.5l0-0.6l0.4-1.1l0.4-0.6l0.5-0.1l0.4,0.2l0.8,1.3
		l0.5,1.4l1.3,0.5l1.7,1.2l1.2,0.6l-0.6-1.5l0-0.9l0.3-0.6l0.8,0.1l0.8,1.1l-0.3,0.7l0.1,0.6l1.5,2.1l-0.7,4.7l0.6,1.3l-0.1,1.7
		l0.7,1.5l0.9,0.5l0.8,0.1l0.3,0.7l0.7,0.6l0.5,1.5l0.8,0.4h0.4l0.5,0.4l1.1,1.4l0.7,0.2l0.6,0.5l-0.2,0.3l0.1,0.3l0.3,0.1l0.5-0.5
		l0-0.6l0.3-0.2l0.5,0.1l1.1,1.3l1.6,1.4l0.8,2.5l1.3,2.2l1.6,1.2l1.5,0.6l0.5,0.6l0.3,0.8l0.1,1.4l1.8,2.9l1.5,0.4l1.1,0.1l0.4,1.8
		l-0.1,1.1l-0.4,0.4l0.1,1.4l0.2,0.7l0.4,0.3l0.3,0.1l0.6,1.4l1.6,0.7l0,0.3l-0.5,1.1l-0.7,2.9l0.2,0.8l0.3,3.6l0.3,0.7l0.1,4.3
		l-0.7,0.2l-0.7,0.9l0.3,1.7l1.2,0.9l0.9,1.1l0.7,2.3l0.9,1.3l0.3,0.9l-0.2,1.6l0.5,1.4l0.5,0.7l0,0l-0.8,0.7l-1.2,0.5l-1.5,0.3
		l-0.8,1.1l-1.8-0.1l-2,0.2l-1.8-0.4l-0.7-0.7l-0.5-0.1l-0.6,0.5l-0.2,0.6l-0.4,0.3l-2.2,0.7l-1.2,0.6l-1,0.8l1,2.2l-0.4,2l-2.1,1
		l-0.7-0.3l-0.4-0.8l-1.9,0.8l-1,2l-0.5,0.6l-0.5,0.1l-0.2-0.1l-0.4-1l-0.1-1.9L414,214l-2.7-1.2l-1.6,0.3l-1.8-0.1l-0.8-0.5
		l-0.8-0.9l-0.3-0.1l-1.5,0.2l-1.6,0.6l-3.3,0.3l-1-0.3l-0.2-0.4l-0.3-0.1l-1.2,0.3l-3.5,2.9l-1.3,1.6l-0.8,0.4h-32.5l0,0H345l0,0
		h-16.9l0,0l-21.8,0l0,0l-1.3,0l0,0l0-36.5h-32.6l0,0V71.2l0,0l2.1,1.7l1,0.4l2.1,0.5l1.7-0.1l0.5,0.4l1.7,0.7l1.8,0.3l1.4,2
		l0.2,1.5l0.5,1.1l0.5,0.5l0.8,0.3l1.1,0.1l1.1,0.7l0.9,0.9l2.1,0.6l0.7,0.4l1,0.9l0.4,0.2l1.2,0.1l2.9-0.5l1.5-0.6l0.9-0.5l1.5-1.2
		l0.8-0.3l0.6-1l0.6-2.4l0.2-1.7l2.6-3.3l1-2.3l0.3-1.6l1.2-3.2l-0.3-1.9l0.6-4.1l1.9-4.3l0.3-1.4l-1.1-2.9l-0.5-3.2l0.2-0.9
		l0.6-1.6l0.1-1.2l-0.2-0.9l-1.1-1.3l-0.1-1.3l0.8-3.3l1.6-3.1l-0.1-0.5l-0.5-0.6l-0.5-1.9l0.1-0.3l0.1-0.2l1.1-0.7l0.4-0.5l0.5-1.5
		l0.6,0.2l0.4,0.6l0,0.9l0.5,0.7l0.1-0.5l-0.6-1.8l-0.5-0.4l-1.3-2l0.3-0.3l-0.2-0.2l-0.7,0l-0.1,0.6l0.3,0.5l-0.6,0.2l-0.4-0.2
		l0-0.2l1-2.2l1-1.3l-0.2-0.4l0.5-1.4l0.5-0.7l0.5-0.2l0.3,1.3l1.2-0.2l0.1-0.3l-0.9-0.9l0-0.5l0.2-1.3l1.7-4.8l0.4-2.4l-0.2-1.9
		l0.1-0.3l0.4-0.3l1.7-0.3l0.6-0.8l0.5-1.2l0.8,0l1,0.5l-0.3,0.5L321.5,8l-0.1,1l0.7-0.9l0.4,0l1.5,1.2l0.5,1l0.8,3.4l-0.3,1.3
		l0.3,2.2l-0.1,1.3l1.2,1l0.8,0.1l0.7-0.3l0.3,0.1l0.7,0.8l-1,1.7l-0.2,0.9l0,1.2l0.6,0.2l0.3-0.1l1,0.5l0.3,0.3l0,1.2l0.5,0.5
		l0.4,0l0.7,0.6l-0.6,1.4l-0.1,1.2l0.5,0.2l1.1-0.1l0.1,0.2l-0.2,2.4l0.2,2.3l0.1,0.4l0.4,0.4l0.3,0.6l-0.1,1l-0.6,2.6l0.8,2l0.9,1
		l0.1,1.8l0.4,1.5l0.5,1l0.4,0.4l0.8,0.4l1.4,0l1.5-1.2l3.1-1.4l0.5-1l0.4,0.1l0.7,1l-0.1,1.1l0.5,1.4l0.7,0.8l1.6,0.6l0.7,0
		l0.7,1.5l2.7,1.2l1.2,0.9l-0.1,0.7l-0.8,1.5l0,0.7l0.4,0.7l0.1,0.8l-0.4,1.3l0.6,1.2l0.6,2v2l0.5,0.6l0.6,1.3l-0.2,2.3l-0.4,0.6
		l-0.1,1.2l0.1,0.3l0.6,0.4l3.7,4.6l0.4-0.3l1-0.2l0.3,0.3l-0.8,1.6l0,0.3l0.8,1.3l0.9,2l0.6,2.1l0.2,1.6l-0.2,1.1l0.2,1.2l-0.1,0.8
		l-1,2.1l0.1,1.1l2.2,2.9l1.3,0.5l-0.1,1.3l-0.5,1.1l-0.1,1.2l0.1,0.4l0.6,0.8l1,0.7l0.3,0.5l1.3,0.8l1,0.5l1.2,0l1.3,1.3l0.7,0
		l1.3,0.4l0.7,0.7l1.2,0.3l1.9-0.2l0.2-0.3l-0.5-0.8l0.6,0.7l1,1.9l0.4,2.2l0.3,0.5l0.5,0.6l0.6,0.1l0.5-0.1l-0.2-0.9l0.1-0.4l0.7,0
		l0.3,0.3l0.1,1.3l0.5,0.5l0.6,0.3l1.4-0.1l1.3,0.4l0.9,1l-0.4,0.1l0.1,0.3l0.6,0.8l0.9,0.7l0.6-0.2l0-0.7l-0.3-0.3l0.1-0.4l0.8,0.3
		l1.6,1.5l1,0.2l0.4,0.5l0.7,1.9l0.4,0.1l0.3,0.9l-0.6-0.2l-0.5-0.5l-0.4-0.2l-0.5,0.2l-0.8,1l0.7,1.8l1.3,1.4l0.8,0.5l1.2,0.4
		l1.4,1.1l0.6,0.8l-0.1,0.9l0.4,1.4l0.5,0.5l0.4,1.4l0.6,1.1l0.6,0.6l-0.1,2.2l1,3.5l0.8,1.8l0.7,1l0.5,0.4l0,1.2l-0.3,0.5l0.7-0.4
		l0.6-0.5l0.3-0.4L402.4,140.1z M436.1,178.3l-0.5-0.1l-0.4-0.6l-0.6-2.1l0.6-1.4l0.7-1.2l0-1l-0.1-0.3l0.5-0.9l1.1-0.9l0.5-1
		l0.1-0.5l-0.1-0.4l-0.6-1.1l-0.2-0.1l0.4-0.8l0.9-0.6l0.1,2.4l0.2,0.6l0.5,0.3l0.1,0.4l-2.6,6.2l-0.5,1.6l0.2,1L436.1,178.3z
		 M284.9,73.5l-0.1-0.7l0.3-1.2l0.6-0.9l0.9-0.7l1.9-0.2l0.6-0.3l2.1,0.3l0.1,0.7l-0.5,0.2L290,71l-0.5-0.4l-1,0.4l0.2,0.3l-0.7,1.1
		l-1.2,0.5l-1.6,0.3L284.9,73.5z M416,154.4l-0.6-0.6l-0.4-0.9l-0.7-0.7l-0.4-0.9l-0.1-0.8l0.5-0.1l1.5,1l0.2,0.4l0.7,1.3l0.1,0.9
		l-0.3,0.4L416,154.4z M362.4,93.2l-0.8-0.3l-0.2-1l-0.5-0.7l-0.5-0.2l-0.3-0.5l0.5-0.1l1.5,0.7l0.9,1.3l-0.3,0.6L362.4,93.2z
		 M439.7,201.7l-0.2-0.4l0.1-1l0.4-2.4l0.4-0.1l0.8,0.1l-0.7,2.4l-0.2,1.4L439.7,201.7z M439.9,197.2l-0.7-2v-1.6l0.9-0.5l0.2,0.2
		l-0.6,2.1L439.9,197.2z M317.8,7l-0.7-0.6l0-0.7l0.6-0.4l0.5-0.1l0.5,0.8l-0.1,0.4l-0.5,0.1L317.8,7z M318.9,1.4l-0.8-0.3l-0.2-0.4
		l0.4-0.6l0.6-0.1l0.4,0.2l0.2,0.4L318.9,1.4z M287.9,77.9l-0.3-0.7l1.1-1l0.6,0.4l0.2,0.8l-1.3,0L287.9,77.9z"/>
	<path id="AU-TAS" class="st0" d="M369.2,414.5l-0.9,0.5l-0.2-0.5l-1.4-0.2l-0.9-0.7l-0.9-0.2l-2.4-0.1l-0.2-0.2l-0.2-0.4l-0.3-0.1
		l-1.3,0.4l-0.8-0.3l-1.1-1.8l0.6-0.5l1.2,0.2l0.6,0.3l0.8,0.2l0-1l-0.8-0.6l-0.4,0.8l-2.9-0.4l-0.2-0.2l-1.2-2.4l-1.4-2.3l-0.2-0.2
		l-0.7,0l-0.6-0.9L353,403l-0.8-2.8l-0.5-0.5l-0.5-0.2l-0.7-4.4l0.1-0.8l0.2-0.3l0.3,0.5l1.9,1.5l0.5,2.2l0.9-2.5l-0.6-0.4l-0.5,0
		l-1.9-2.1l-0.2-0.6l0-0.9l-0.2-0.7l-0.7-1.4l-1.4-1.3l-1.1-1.9l-2.9-7.2l0.1-0.5l-0.3-1.5l-0.3-0.6l-0.2-1.4l0.9-0.8l0-1.7l0.7-0.4
		l2.4,0.3l1.4,1l1.7-0.3l0.7,0.6l2.2,0.7l3.6,2.1l3.5,1.6l2.3,0.2l1-0.3l0.9,0.5l0-0.5l0.9-0.9l0.8-0.3l0.6,0.2l0.2,1l0.6,0.3l0.9,0
		l-0.3-0.5l-0.8-0.2l-0.2-0.2l0-0.7l0.5-0.5l1.7-0.8l1.4,0.5l2.3-0.5l0.7,0.6l0.8-0.5l1.1-1.9l0.2-0.1l0.7-0.2l0.3,0.4l1.1,0.5
		l0.4,0l0.7-0.4l0.4-0.6l0.2-0.9l0.2-0.2l0.5,0l0.7,0.3l1.5,1.1l0.6,0.8l0.6,1.4l-0.7,2.5l0.1,0.7l0.5,0.6l0,1.1l-0.5,1.7l0.1,1.2
		l0.4,1.1l-0.5,2.9l0.4,3.2l0.7,1.1l0.1,1.7l-0.6,0.8l-0.4-0.3l0-0.4l0.3-0.4l0.1-1l-0.8-2.1l-0.5-0.8l-1.3,2.5l-0.8,5.9l-0.5,0.5
		l-0.2,0.8l0.1,1.5l-0.8,0.8l-0.4,1.5l0.1,0.2l0.5,0l-0.2-0.4l0.3-0.2l0.7,0.4l0.3,0.5l0.1,1l-0.4,0.3l-0.2,1.3l0.6,1.3l-0.1,0.8
		l-0.3,0l-0.8-0.7l-0.8,0.3l-0.4,0.6l-1-1.2l-0.7-1.5l-0.1-0.7l0.6-1.1l0.4-0.1l0.3,0.2l0,0.4l-0.2,0.4l0.7,0.7l0.9-0.1l0.3-0.3
		l-0.8-1.4l-2.5-1.5l-0.4,0.1l-0.6,0.5l0.2,1l0.3,0.7l-0.3,0.6l-1.1,0.4l-0.2-0.6l0.2-0.1l-0.2-1.5l-1-0.6l0.3,0.9l-0.2,1.5
		l-0.6,0.8l-0.3,1.1l0.2,1l-0.2,1l-0.4,0.2l-0.4,0l-0.9-0.6l-0.8-0.9l-0.1-0.9L370,407l-0.2,0.4l0,1l1.4,1.2l-0.4,1.1l-0.6,0.9
		l-0.5,1.6l-0.2,1.1L369.2,414.5z M382.4,365.9l-1-0.5l-0.3-1.1l0.1-0.3l-1.2-2.3l-1.5-1.4l1.3-1.7l0.9-0.4l2.1,2.9l0.4,0.3l0.8,0.2
		l0.1,0.4l0.5,2.8l0,0.4l-0.3,0.3l-1.4,0.2L382.4,365.9z M336.7,363.9l-0.4-0.3l-0.1-0.7l0.2-0.1v-1l-0.6-0.8l0-0.8l0.2-2.3l0.9-0.6
		l0.1-0.4l-0.1-0.8l0.5-0.1l1,0.6l0.5,0.6l0.1,2.3l0.3,1.5l-0.1,0.8l-0.3,0.7L336.7,363.9z M384.6,369.1l0-0.7l-0.2-0.3l-2.5,0.3
		l-1-0.4l0-0.5l0.7-0.6l0.7,0l0.8,0.2l1.5-0.8l1.5,1.8l0,0.1l-0.8,0.3L384.6,369.1z M373.4,412.9l-0.7-0.3l-0.7,0.1l-0.6-1.2
		l1.9-2.4l0.7,1.8l-0.5,1.7L373.4,412.9z M499.1,600l-0.5,0l0-1.5l0.6-2.8l0.2-0.5l0.5-0.3l-0.2,1.9l-0.6,2.1L499.1,600z M374,409.2
		l-0.8-1.6l0.7-1.2l0.4,0.7l0.4,1.8l0,0.2L374,409.2z M381.1,401.7l0-2l0.6-0.5l0.6,0l0.5,1l0,0.1l-0.8,0L381.1,401.7z M347.2,372.3
		l-0.2-0.1l0-0.7l0.6-0.8l1,1.1L347.2,372.3z"/>
</g>
</svg>
